<?xml version="1.0" encoding="UTF-8"?>
<svg id="Camada_2" data-name="Camada 2" xmlns="http://www.w3.org/2000/svg" viewBox="0 0 20.917 20.821">
  <defs>
    <style>
      .cls-1 {
        fill: #b68b42;
      }

      .cls-1, .cls-2 {
        fill-rule: evenodd;
      }

      .cls-2 {
        fill: #fefeff;
      }
    </style>
  </defs>
  <g id="Camada_1-2" data-name="Camada 1">
    <path class="cls-1" d="M5.582,4.822l1.117.298.063,7.58c.439.013,1.283-.879,1.817-1.123.49.446.797.993,1.2,1.48.298.361.137.273.547.455l1.603-1.918c.677.327,1.043.796,1.66,1.174l.042-4.911.747-.427-.016-2.557c.576-.01,1.894.786,1.975,1.46l.014,7.121c.005.553.208,3.075-.167,3.443-.464.424-2.132-.175-2.902-.114-1.036.082-2.033.219-3.065.336-1.065.12-4.871-.4-5.879-.767-.249-.897-.095-5.142-.1-6.392-.004-1.064-.031-2.178-.005-3.236.017-.704.079-.767.541-1.107.369-.271.594-.488.808-.794h0ZM10.326,12.232c-.492-.371-1.958-2.116-2.201-3.021-1.051-3.918,5.455-3.802,4.387-.023-.245.868-1.658,2.485-2.186,3.044h0ZM9.139.098C3.881.814-.626,5.625.072,11.771c.613,5.397,5.596,9.696,11.812,8.971,5.215-.609,9.767-5.493,8.935-11.591C20.107,3.943,15.326-.743,9.139.098h0Z"/>
    <path class="cls-2" d="M5.582,4.822c-.213.306-.439.524-.808.794-.463.34-.524.403-.541,1.107-.026,1.058,0,2.172.005,3.236.005,1.25-.149,5.496.1,6.392,1.008.367,4.814.888,5.879.767,1.033-.117,2.03-.254,3.065-.336.771-.061,2.438.538,2.902.114.375-.368.172-2.89.167-3.443l-.014-7.121c-.081-.674-1.399-1.47-1.975-1.46l.016,2.557-.747.427-.042,4.911c-.616-.378-.983-.847-1.66-1.174l-1.603,1.918c-.41-.182-.249-.094-.547-.455-.403-.487-.71-1.034-1.2-1.48-.534.244-1.378,1.136-1.817,1.123l-.063-7.58-1.117-.298h0Z"/>
    <path class="cls-2" d="M10.326,12.232c.528-.559,1.941-2.176,2.186-3.044,1.069-3.779-5.438-3.895-4.387.023.243.906,1.709,2.65,2.201,3.021h0Z"/>
  </g>
</svg>