<?xml version="1.0" encoding="UTF-8"?>
<svg id="Camada_2" data-name="Camada 2" xmlns="http://www.w3.org/2000/svg" viewBox="0 0 169.284 21.42">
  <defs>
    <style>
      .cls-1 {
        fill: #1b3c5f;
      }

      .cls-2 {
        fill: #bb9250;
      }
    </style>
  </defs>
  <g id="Camada_1-2" data-name="Camada 1">
    <path class="cls-1" d="M7.184,16.82v2.659H0V1.328h7.056v2.659H2.94v2.915h3.451v2.659h-3.451v7.261h4.244ZM10.993,10.429l.205,9.05h-2.966V1.328h3.068l2.326,9.152-.23-9.152h2.966v18.151h-3.093l-2.275-9.05h0ZM23.162,19.479h-3.503L17.129,1.328h2.991l1.278,12.322,1.329-12.322h2.991l-2.557,18.151h0ZM30.55,19.632c-.562,0-1.091-.106-1.585-.319-.494-.213-.925-.503-1.291-.869-.366-.367-.656-.797-.869-1.291-.213-.494-.319-1.022-.319-1.585V5.214c0-.562.107-1.091.319-1.585.213-.494.503-.929.869-1.304.366-.375.797-.669,1.291-.882.494-.213,1.023-.32,1.585-.32s1.091.107,1.585.32c.494.213.925.507,1.291.882.366.375.656.81.869,1.304.213.494.32,1.022.32,1.585v10.354c0,.563-.107,1.091-.32,1.585-.213.494-.503.925-.869,1.291-.367.366-.797.656-1.291.869-.494.213-1.022.319-1.585.319h0ZM29.425,15.849c0,.307.111.571.333.793.221.222.486.332.793.332s.571-.111.792-.332c.222-.221.333-.486.333-.793V4.882c0-.307-.111-.567-.333-.78-.221-.213-.486-.319-.792-.319s-.571.107-.793.319c-.222.213-.333.473-.333.78v10.967h0ZM42.361,16.82v2.659h-6.723V1.328h2.94v15.492h3.784ZM47.653,19.479h-3.502l-2.531-18.151h2.991l1.278,12.322,1.329-12.322h2.991l-2.557,18.151h0ZM52.46,17.255l-.281,2.224h-2.991l2.786-18.151h3.503l2.71,18.151h-2.991l-.256-2.224h-2.48ZM54.607,14.622l-.895-7.669-.92,7.644,1.815.026h0ZM66.725,9.585v1.943h-7.772v-1.943h7.772ZM71.813,19.632c-.562,0-1.091-.106-1.585-.324-.494-.213-.925-.507-1.291-.878-.367-.37-.656-.801-.869-1.299-.213-.499-.319-1.027-.319-1.589v-2.531h2.94v2.837c0,.307.111.571.333.793.221.222.486.332.793.332s.571-.111.792-.332c.222-.221.332-.486.332-.793v-1.53c0-.562-.128-1.044-.384-1.44-.256-.401-.575-.763-.959-1.087-.384-.324-.801-.635-1.253-.933-.452-.298-.869-.626-1.253-.993-.384-.366-.703-.797-.959-1.291-.256-.494-.384-1.087-.384-1.785v-1.585c0-.558.107-1.087.319-1.581.213-.494.503-.929.869-1.3.366-.375.797-.669,1.291-.882.494-.213,1.023-.32,1.585-.32s1.091.107,1.585.32c.494.213.925.507,1.291.882.366.375.656.81.869,1.304.213.494.32,1.022.32,1.585v2.48h-2.94v-2.812c0-.307-.111-.567-.332-.78-.221-.213-.486-.319-.792-.319s-.571.107-.793.319c-.222.213-.333.473-.333.78v1.662c0,.477.128.891.384,1.24.256.349.575.677.959.984.384.307.801.614,1.253.92.452.307.869.648,1.253,1.023.383.375.703.801.959,1.278.256.477.384,1.048.384,1.713v1.866c0,.563-.107,1.091-.32,1.585-.213.494-.503.925-.869,1.291-.367.366-.797.656-1.291.869-.494.213-1.022.319-1.585.319h0ZM84.084,16.82v2.659h-7.184V1.328h7.056v2.659h-4.116v2.915h3.451v2.659h-3.451v7.261h4.244ZM86.206,14.801l-.742-13.473h2.966l-.767,13.473h-1.457ZM86.947,16.002c.494,0,.92.175,1.278.524.358.35.537.771.537,1.266s-.179.92-.537,1.278-.784.537-1.278.537-.92-.179-1.278-.537c-.358-.358-.537-.784-.537-1.278s.179-.916.537-1.266c.358-.349.784-.524,1.278-.524h0Z"/>
    <path class="cls-2" d="M101.521,8.726c-.257,0-.498-.048-.724-.148-.226-.097-.422-.232-.59-.401-.167-.17-.3-.366-.397-.594-.097-.228-.146-.469-.146-.726v-1.157h1.343v1.297c0,.14.051.261.152.362.101.101.222.152.362.152s.261-.051.362-.152.152-.222.152-.362v-.699c0-.257-.058-.477-.175-.658-.117-.183-.263-.348-.438-.496-.175-.148-.366-.29-.572-.426-.206-.136-.397-.286-.572-.454-.175-.168-.321-.364-.438-.59-.117-.226-.175-.497-.175-.816v-.724c0-.255.049-.497.146-.722.098-.226.23-.424.397-.594.168-.171.364-.306.59-.403.226-.097.467-.146.724-.146s.499.049.724.146c.226.098.423.232.59.403.168.171.3.37.397.596.097.226.146.467.146.724v1.133h-1.343v-1.285c0-.14-.051-.259-.152-.356-.101-.097-.222-.146-.362-.146s-.261.049-.362.146c-.101.097-.152.216-.152.356v.759c0,.218.058.407.175.567.117.16.263.31.438.45.175.14.366.28.572.42.206.14.397.296.572.467.175.171.321.366.438.584.117.218.175.479.175.783v.853c0,.257-.049.498-.146.724-.098.226-.23.423-.397.59-.167.168-.364.3-.59.397-.226.097-.467.146-.724.146h0ZM106.45,7.978c-.101.202-.247.38-.438.531-.191.152-.45.228-.777.228-.257,0-.473-.053-.648-.158-.175-.105-.319-.247-.432-.426-.113-.179-.193-.386-.24-.619-.046-.234-.07-.479-.07-.736V2.22h1.343v4.673c0,.21.053.368.158.473.105.105.222.156.35.152.128-.004.247-.058.356-.164.109-.105.164-.259.164-.461V2.22h1.343v6.436h-.736l-.374-.677h0ZM111.754,8.656h-.73l-.382-.736c-.094.249-.236.448-.426.596-.189.148-.448.222-.775.222-.257,0-.475-.058-.654-.175-.179-.117-.325-.277-.438-.479-.113-.202-.194-.44-.245-.713-.051-.272-.076-.565-.076-.876,0-.499.045-.894.134-1.186.09-.292.232-.514.426-.666.195-.152.442-.247.742-.286.3-.039.66-.058,1.081-.058,0-.319-.039-.563-.117-.73-.078-.168-.173-.28-.286-.339-.113-.058-.24-.076-.38-.053-.14.024-.271.066-.391.128-.121.062-.226.134-.315.216-.09.082-.146.146-.17.193l-.467-.643c.109-.179.249-.339.42-.479.148-.117.333-.226.559-.327.226-.101.497-.152.814-.152.304,0,.559.049.769.146.208.098.382.23.518.397.136.168.234.362.296.584.062.222.094.461.094.718v4.696h0ZM110.41,5.245c-.117,0-.234.002-.35.006-.117.004-.226.037-.327.099-.101.062-.183.17-.245.321-.062.152-.093.376-.093.672,0,.397.043.693.128.888.086.195.242.292.467.292.14,0,.245-.049.316-.146.07-.098.105-.216.105-.356v-1.776h0ZM117.676,2.22l-1.133,6.436h-1.203l-1.121-6.436h1.18l.549,3.773.526-3.773h1.203ZM119.884,2.114c.257,0,.499.049.724.146.226.098.423.232.59.403.168.171.3.37.397.596.097.226.146.467.146.724v2.885c0,.257-.049.498-.146.724-.098.226-.23.424-.397.596-.167.171-.364.306-.59.403-.226.097-.467.146-.724.146s-.498-.049-.724-.146c-.226-.098-.422-.232-.59-.403-.167-.172-.3-.37-.397-.596-.097-.226-.146-.467-.146-.724v-2.885c0-.257.049-.499.146-.724.098-.226.23-.425.397-.596.168-.171.364-.306.59-.403.226-.097.467-.146.724-.146h0ZM120.398,3.832c0-.14-.051-.259-.152-.356-.101-.097-.222-.146-.362-.146s-.261.049-.362.146c-.101.097-.152.216-.152.356v3.177c0,.14.051.261.152.362.101.101.222.152.362.152s.261-.051.362-.152c.101-.101.152-.222.152-.362v-3.177h0ZM125.386,7.441v1.215h-3.177v-.969l1.764-4.252h-1.764v-1.215h3.119v.897l-1.717,4.324h1.776ZM129.813,2.114c.257,0,.499.049.724.146.226.098.423.232.59.403.168.171.3.37.397.596.097.226.146.467.146.724v.923h-1.343v-1.075c0-.14-.051-.259-.152-.356-.101-.097-.222-.146-.362-.146s-.261.049-.362.146c-.101.097-.152.216-.152.356v3.177c0,.14.051.261.152.362.101.101.222.152.362.152s.261-.051.362-.152c.101-.101.152-.222.152-.362v-1.063h1.343v.923c0,.257-.049.498-.146.724-.098.226-.23.424-.397.596-.167.171-.364.306-.59.403-.226.097-.467.146-.724.146s-.498-.049-.724-.146c-.226-.098-.422-.232-.59-.403-.167-.172-.3-.37-.397-.596-.097-.226-.146-.467-.146-.724v-2.885c0-.257.049-.499.146-.724.098-.226.23-.425.397-.596.168-.171.364-.306.59-.403.226-.097.467-.146.724-.146h0ZM133.995,2.114c.257,0,.499.049.724.146.226.098.423.232.59.403.168.171.3.37.397.596.097.226.146.467.146.724v2.885c0,.257-.049.498-.146.724-.098.226-.23.424-.397.596-.167.171-.364.306-.59.403-.226.097-.467.146-.724.146s-.498-.049-.724-.146c-.226-.098-.422-.232-.59-.403-.167-.172-.3-.37-.397-.596-.097-.226-.146-.467-.146-.724v-2.885c0-.257.049-.499.146-.724.098-.226.23-.425.397-.596.168-.171.364-.306.59-.403.226-.097.467-.146.724-.146h0ZM134.509,3.832c0-.14-.051-.259-.152-.356-.101-.097-.222-.146-.362-.146s-.261.049-.362.146c-.101.097-.152.216-.152.356v3.177c0,.14.051.261.152.362.101.101.222.152.362.152s.261-.051.362-.152c.101-.101.152-.222.152-.362v-3.177h0ZM137.277,2.617c.117-.148.263-.267.438-.356.175-.09.387-.134.637-.134.257,0,.488.053.695.158.207.105.384.245.531.42.148.175.261.38.339.613.078.234.117.479.117.736v4.602h-1.343V3.96c0-.21-.055-.368-.164-.473-.109-.105-.228-.156-.356-.152-.128.004-.245.058-.35.163-.105.105-.158.259-.158.461v4.696h-1.343V2.231h.736l.222.385h0ZM142.359,2.114c.257,0,.499.049.724.146.226.098.423.232.59.403.168.171.3.37.397.596.097.226.146.467.146.724v.409h-1.343v-.561c0-.14-.051-.259-.152-.356-.101-.097-.222-.146-.362-.146s-.261.049-.362.146c-.101.097-.152.216-.152.356v.315c0,.156.058.286.175.391.117.105.263.204.438.298.175.094.366.189.572.286.206.097.397.214.572.351.175.136.321.298.438.485.117.187.175.42.175.701v.21c0,.257-.049.498-.146.724-.098.226-.23.424-.397.596-.167.171-.364.306-.59.403-.226.097-.467.146-.724.146s-.498-.049-.724-.146c-.226-.098-.422-.232-.59-.403-.167-.172-.3-.37-.397-.596-.097-.226-.146-.467-.146-.724v-.526h1.343v.666c0,.14.051.261.152.362.101.101.222.152.362.152s.261-.051.362-.152c.101-.101.152-.222.152-.362v-.257c0-.156-.058-.288-.175-.397-.117-.109-.263-.21-.438-.304-.175-.094-.366-.187-.572-.28-.206-.094-.397-.208-.572-.345-.175-.136-.321-.3-.438-.491s-.175-.426-.175-.707v-.245c0-.257.049-.499.146-.724.098-.226.23-.425.397-.596.168-.171.364-.306.59-.403.226-.097.467-.146.724-.146h0ZM147.721,8.072c-.109.14-.267.286-.473.438-.206.152-.477.228-.81.228-.194,0-.364-.037-.51-.111-.146-.074-.273-.175-.376-.304-.105-.129-.185-.277-.238-.444-.054-.168-.082-.349-.082-.543V3.049h-.666v-.829h.677l.822-1.449h.51v1.449h1.157v.829h-1.157v4.357c0,.148.045.272.134.374.09.101.208.152.356.152.078,0,.154-.018.228-.052.074-.035.142-.076.205-.123l.222.315h0ZM149.438,8.656h-1.343V2.231l1.343-.012v.736c.14-.218.339-.395.596-.531.257-.136.596-.204,1.016-.204v1.285c-.312,0-.57.006-.777.018-.206.012-.372.07-.497.175-.124.105-.212.273-.263.502-.05.23-.076.563-.076.999v3.458h0ZM153.386,2.114c.257,0,.499.049.724.146.226.098.423.232.59.403.168.171.3.37.397.596.097.226.146.467.146.724v2.885c0,.257-.049.498-.146.724-.098.226-.23.424-.397.596-.167.171-.364.306-.59.403-.226.097-.467.146-.724.146s-.498-.049-.724-.146c-.226-.098-.422-.232-.59-.403-.167-.172-.3-.37-.397-.596-.097-.226-.146-.467-.146-.724v-2.885c0-.257.049-.499.146-.724.098-.226.23-.425.397-.596.168-.171.364-.306.59-.403.226-.097.467-.146.724-.146h0ZM153.9,3.832c0-.14-.051-.259-.152-.356-.101-.097-.222-.146-.362-.146s-.261.049-.362.146c-.101.097-.152.216-.152.356v3.177c0,.14.051.261.152.362.101.101.222.152.362.152s.261-.051.362-.152c.101-.101.152-.222.152-.362v-3.177h0ZM153.561,0l.642.584-1.191,1.039-.351-.327.9-1.297h0ZM155.71,2.22h1.343v6.436h-1.343V2.22h0ZM156.388,1.752c-.226,0-.42-.08-.584-.24s-.245-.352-.245-.578.082-.42.245-.584.358-.245.584-.245.421.082.584.245c.164.164.245.358.245.584s-.082.419-.245.578c-.164.16-.358.24-.584.24h0ZM101.521,12.262c.257,0,.499.049.724.146.226.098.423.232.59.403.168.171.3.37.397.596.097.226.146.467.146.724v2.885c0,.257-.049.498-.146.724-.098.226-.23.424-.397.596-.167.171-.364.306-.59.403-.226.097-.467.146-.724.146s-.498-.049-.724-.146c-.226-.098-.422-.232-.59-.403-.167-.171-.3-.37-.397-.596-.097-.226-.146-.467-.146-.724v-2.885c0-.257.049-.499.146-.724.098-.226.23-.425.397-.596.168-.171.364-.306.59-.403.226-.097.467-.146.724-.146h0ZM102.035,13.979c0-.14-.051-.259-.152-.356-.101-.097-.222-.146-.362-.146s-.261.049-.362.146c-.101.097-.152.216-.152.356v3.177c0,.14.051.261.152.362.101.101.222.152.362.152s.261-.051.362-.152c.101-.101.152-.222.152-.362v-3.177h0ZM106.497,18.803v-5.607h-.666v-.829h.666v-.705c0-.197.037-.378.111-.547.072-.168.172-.313.294-.44.124-.125.268-.224.434-.3.168-.074.347-.111.539-.111h1.075v.9l-.584-.012c-.148,0-.272.051-.374.152-.101.101-.152.226-.152.374v.689h1.157v.829h-1.157v5.607h-1.343ZM112.081,18.126c-.101.202-.247.38-.438.531-.191.152-.45.228-.777.228-.257,0-.473-.053-.648-.158-.175-.105-.319-.247-.432-.426-.113-.179-.193-.385-.24-.619-.046-.234-.07-.479-.07-.736v-4.579h1.343v4.673c0,.21.053.368.158.473.105.105.222.156.35.152.128-.004.247-.058.356-.164.109-.105.164-.259.164-.461v-4.673h1.343v6.436h-.736l-.374-.677h0ZM116.695,18.219c-.109.14-.267.286-.473.438-.206.152-.477.228-.81.228-.194,0-.364-.037-.51-.111-.146-.074-.273-.175-.376-.304-.105-.129-.185-.277-.238-.444-.054-.168-.082-.349-.082-.543v-4.287h-.666v-.829h.677l.822-1.448h.51v1.448h1.157v.829h-1.157v4.357c0,.148.045.272.134.374.09.101.208.152.356.152.078,0,.154-.018.228-.052.074-.035.142-.076.205-.123l.222.315h0ZM119.674,18.126c-.101.202-.247.38-.438.531-.191.152-.45.228-.777.228-.257,0-.473-.053-.648-.158-.175-.105-.319-.247-.432-.426-.113-.179-.193-.385-.24-.619-.046-.234-.07-.479-.07-.736v-4.579h1.343v4.673c0,.21.053.368.158.473.105.105.222.156.35.152.128-.004.247-.058.356-.164.109-.105.164-.259.164-.461v-4.673h1.343v6.436h-.736l-.374-.677h0ZM122.594,18.803h-1.343v-6.425l1.343-.012v.736c.14-.218.339-.395.596-.532.257-.136.596-.204,1.016-.204v1.285c-.312,0-.57.006-.777.018s-.372.07-.497.175c-.124.105-.212.273-.263.502-.05.23-.076.563-.076.999v3.458h0ZM126.542,12.262c.257,0,.499.049.724.146.226.098.423.232.59.403.168.171.3.37.397.596.097.226.146.467.146.724v2.885c0,.257-.049.498-.146.724-.098.226-.23.424-.397.596-.167.171-.364.306-.59.403-.226.097-.467.146-.724.146s-.498-.049-.724-.146c-.226-.098-.422-.232-.59-.403-.167-.171-.3-.37-.397-.596-.097-.226-.146-.467-.146-.724v-2.885c0-.257.049-.499.146-.724.098-.226.23-.425.397-.596.168-.171.364-.306.59-.403.226-.097.467-.146.724-.146h0ZM127.056,13.979c0-.14-.051-.259-.152-.356s-.222-.146-.362-.146-.261.049-.362.146c-.101.097-.152.216-.152.356v3.177c0,.14.051.261.152.362.101.101.222.152.362.152s.261-.051.362-.152.152-.222.152-.362v-3.177h0ZM133.738,18.383c-.125.14-.275.259-.45.356-.175.097-.387.146-.637.146-.257,0-.489-.053-.695-.158-.206-.105-.384-.247-.532-.426-.148-.179-.261-.385-.339-.619-.078-.234-.117-.479-.117-.736v-2.71c0-.42.066-.769.199-1.045.132-.276.308-.49.526-.642.218-.152.469-.242.753-.269.284-.027.582.006.894.099v-2.056h1.343v8.481h-.736l-.21-.42h0ZM132.313,17.039c0,.21.053.368.158.473.105.105.222.156.35.152.128-.004.247-.058.356-.164.109-.105.164-.259.164-.461v-3.563c-.117-.086-.236-.14-.356-.164-.121-.023-.23-.016-.327.023-.098.039-.179.107-.245.205-.066.097-.099.228-.099.391v3.107h0ZM138.878,18.803h-.73l-.382-.736c-.094.249-.236.448-.426.596-.189.148-.448.222-.775.222-.257,0-.475-.058-.654-.175-.179-.117-.325-.277-.438-.479-.113-.202-.194-.44-.245-.713-.051-.272-.076-.565-.076-.876,0-.499.045-.894.134-1.186.09-.292.232-.514.426-.666.195-.152.442-.247.742-.286.3-.039.66-.058,1.081-.058,0-.319-.039-.563-.117-.73-.078-.168-.173-.28-.286-.339s-.24-.076-.38-.053c-.14.023-.271.066-.391.128-.121.062-.226.134-.315.216-.09.082-.146.146-.17.193l-.467-.643c.109-.179.249-.339.42-.479.148-.117.333-.226.559-.327.226-.101.497-.152.814-.152.304,0,.559.049.769.146.208.098.382.23.518.397.136.168.234.362.296.584s.094.461.094.718v4.696h0ZM137.534,15.392c-.117,0-.234.002-.35.006-.117.004-.226.037-.327.099s-.183.17-.245.321c-.062.152-.093.376-.093.672,0,.397.043.693.128.888.086.195.242.292.467.292.14,0,.245-.049.315-.146.07-.098.105-.216.105-.356v-1.776h0ZM143.317,18.873c-.257,0-.498-.048-.724-.148-.226-.097-.422-.232-.59-.401-.167-.169-.3-.366-.397-.594-.097-.228-.146-.469-.146-.726v-1.892h1.343v2.033c0,.14.051.261.152.362.101.101.222.152.362.152s.261-.051.362-.152c.101-.101.152-.222.152-.362v-6.635h1.343v6.506c0,.257-.049.498-.146.724-.098.226-.23.423-.397.59-.167.168-.364.3-.59.397-.226.098-.467.146-.724.146h0ZM148.246,18.126c-.101.202-.247.38-.438.531-.191.152-.45.228-.777.228-.257,0-.473-.053-.648-.158-.175-.105-.319-.247-.432-.426-.113-.179-.193-.385-.24-.619-.046-.234-.07-.479-.07-.736v-4.579h1.343v4.673c0,.21.053.368.158.473.105.105.222.156.35.152.128-.004.247-.058.356-.164.109-.105.164-.259.164-.461v-4.673h1.343v6.436h-.736l-.374-.677h0ZM151.68,12.262c.257,0,.499.049.724.146.226.098.423.232.59.403.168.171.3.37.397.596.097.226.146.467.146.724v.409h-1.343v-.561c0-.14-.051-.259-.152-.356s-.222-.146-.362-.146-.261.049-.362.146c-.101.097-.152.216-.152.356v.316c0,.156.058.286.175.391s.263.204.438.298c.175.094.366.189.572.286.206.098.397.214.572.351.175.136.321.298.438.485.117.187.175.42.175.701v.21c0,.257-.049.498-.146.724-.098.226-.23.424-.397.596-.167.171-.364.306-.59.403-.226.097-.467.146-.724.146s-.498-.049-.724-.146c-.226-.098-.422-.232-.59-.403-.167-.171-.3-.37-.397-.596-.097-.226-.146-.467-.146-.724v-.526h1.343v.666c0,.14.051.261.152.362.101.101.222.152.362.152s.261-.051.362-.152.152-.222.152-.362v-.257c0-.156-.058-.288-.175-.397-.117-.109-.263-.21-.438-.304-.175-.094-.366-.187-.572-.28-.206-.094-.397-.208-.572-.345-.175-.136-.321-.3-.438-.491-.117-.191-.175-.426-.175-.707v-.245c0-.257.049-.499.146-.724.098-.226.23-.425.397-.596.168-.171.364-.306.59-.403.226-.097.467-.146.724-.146h0ZM157.042,18.219c-.109.14-.267.286-.473.438-.206.152-.477.228-.81.228-.194,0-.364-.037-.51-.111-.146-.074-.273-.175-.376-.304-.105-.129-.185-.277-.238-.444-.054-.168-.082-.349-.082-.543v-4.287h-.666v-.829h.677l.822-1.448h.51v1.448h1.157v.829h-1.157v4.357c0,.148.045.272.134.374.09.101.208.152.356.152.078,0,.154-.018.228-.052.074-.035.142-.076.205-.123l.222.315h0ZM157.416,12.367h1.343v6.436h-1.343v-6.436h0ZM158.094,11.9c-.226,0-.42-.08-.584-.24-.164-.16-.245-.352-.245-.578s.082-.42.245-.584c.164-.164.358-.245.584-.245s.421.082.584.245c.164.164.245.358.245.584s-.082.419-.245.578c-.164.16-.358.24-.584.24h0ZM161.248,19.375c.312,0,.543.074.695.222.152.148.228.393.228.736v.082c0,.273-.068.508-.205.707-.136.199-.356.298-.66.298-.241,0-.446-.084-.613-.251-.168-.168-.251-.372-.251-.613v-.315h.549v.315c0,.086.031.16.093.222.062.062.136.093.222.093.109,0,.189-.041.24-.122.051-.082.076-.189.076-.321v-.093c0-.171-.029-.28-.088-.327-.058-.047-.154-.07-.286-.07h-.374l-.093-.339.198-.712c-.241-.016-.467-.074-.677-.175-.21-.102-.395-.238-.555-.409-.16-.171-.284-.366-.374-.584-.09-.218-.134-.452-.134-.701v-2.885c0-.257.049-.499.146-.724.098-.226.23-.425.397-.596.168-.171.364-.306.59-.403.226-.097.467-.146.724-.146s.499.049.724.146c.226.098.423.232.59.403.168.171.3.37.397.596.097.226.146.467.146.724v.923h-1.343v-1.075c0-.14-.051-.259-.152-.356-.101-.097-.222-.146-.362-.146s-.261.049-.362.146-.152.216-.152.356v3.177c0,.14.051.261.152.362s.222.152.362.152.261-.051.362-.152c.101-.101.152-.222.152-.362v-1.063h1.343v.923c0,.444-.132.831-.397,1.163-.265.331-.6.547-1.005.648l-.304.549h0Z"/>
    <path class="cls-2" d="M167.147,18.803h-.73l-.382-.736c-.094.249-.236.448-.426.596-.189.148-.448.222-.775.222-.257,0-.475-.058-.654-.175-.179-.117-.325-.277-.438-.479-.113-.202-.194-.44-.245-.713-.051-.272-.076-.565-.076-.876,0-.499.045-.894.134-1.186.09-.292.232-.514.426-.666.195-.152.442-.247.742-.286.3-.039.66-.058,1.081-.058,0-.319-.039-.563-.117-.73-.078-.168-.173-.28-.286-.339-.113-.058-.24-.076-.38-.053-.14.023-.271.066-.391.128-.121.062-.226.134-.315.216-.09.082-.146.146-.17.193l-.467-.643c.109-.179.249-.339.42-.479.148-.117.333-.226.559-.327.226-.101.497-.152.814-.152.304,0,.559.049.769.146.208.098.382.23.518.397.136.168.234.362.296.584.062.222.094.461.094.718v4.696h0ZM165.804,15.392c-.117,0-.234.002-.35.006-.117.004-.226.037-.327.099-.101.062-.183.17-.245.321-.062.152-.093.376-.093.672,0,.397.043.693.128.888s.242.292.467.292c.14,0,.245-.049.316-.146.07-.098.105-.216.105-.356v-1.776h0ZM167.626,18.032c0-.226.082-.418.245-.578.163-.16.358-.24.584-.24s.421.08.584.24c.164.16.245.352.245.578s-.082.421-.245.584c-.163.164-.358.245-.584.245s-.421-.082-.584-.245c-.164-.164-.245-.358-.245-.584h0Z"/>
  </g>
</svg>