<?xml version="1.0" encoding="UTF-8"?>
<svg id="Camada_2" data-name="Camada 2" xmlns="http://www.w3.org/2000/svg" viewBox="0 0 22.85 20.365">
  <defs>
    <style>
      .cls-1 {
        fill: #1b3c5f;
        fill-rule: evenodd;
      }
    </style>
  </defs>
  <g id="Camada_1-2" data-name="Camada 1">
    <path class="cls-1" d="M7.956,16.811c.321,1.918-.543,3.764.687,3.45.287-.501.179-7.489.054-7.985l-.514-.068c-.392.571-.189,2.913-.18,3.839-1.171-.068-1.046-.338-1.042-2.104.002-.929-.06-2.171.029-3.062.084-.837.553-1.67.996-2.025.678-.544,1.429-.665,2.528-.669.506.306.359.499.677.837.63-.029.594-.385.914-.84,1.135-.027,1.778-.02,2.56.583,1.609,1.243,1.207,3.03,1.215,5.073.005,1.227.333,2.196-1.069,2.192.007-.429.323-5.012-.663-3.68-.234.317-.109,5.958-.112,7.126,0,.155.015.645.136.753.804.378.652-.679.647-1.269-.005-.721-.008-1.443.005-2.164,1.615-.126,1.841-.748,1.831-2.344-.007-1.182.113-3.113-.124-4.17-.259-1.157-1.067-2.021-1.868-2.442-.558-.294-.996-.407-1.691-.418-1.285-.02-.918.16-1.685.484-.441-.565-.588-.5-1.492-.487-.643.01-1.201.148-1.685.428-2.41,1.394-1.953,3.877-1.948,6.503.005,2.13.325,2.123,1.793,2.459h0Z"/>
    <path class="cls-1" d="M1.507,16.811c.159,1.014-.219,2.736.177,3.485l.505-.003c.26-.543.103-5.165.127-6.459.007-.368.048-.687-.187-.843-.86-.571-.592,2.113-.589,3.073-1.008-.092-.758-.428-.768-2.43-.005-1.027-.13-1.987.403-2.785.458-.686,1.108-.992,2.164-.985,2.085.015,2.568.251,2.582-.64-.315-.072-3.037-.104-3.455-.043-.941.139-1.82.937-2.135,1.648C-.12,11.848.02,13.161.022,14.352c.003,1.858-.141,2.064,1.485,2.459h0Z"/>
    <path class="cls-1" d="M8.904,3.595c-.315-3.405,4.619-3.771,4.899-.511.289,3.373-4.593,3.81-4.899.511h0ZM10.737.08c-4.294.885-2.898,7.466,1.352,6.516,3.998-.893,2.873-7.387-1.352-6.516h0Z"/>
    <path class="cls-1" d="M17.062,9.865c2.047.078,3.928-.461,4.756,1.18.394.78.287,1.769.289,2.693.003,1.821.224,2.283-.872,2.321l.018-2.431c-.001-.124.004-.253-.028-.371-.077-.287-.031-.137-.147-.261-.852-.331-.573,1.533-.573,2.279l-.017,4.606c.061.63.653.627.765.099.082-.389-.004-2.604,0-3.19,1.676-.06,1.57-.862,1.573-2.438.003-1.263.165-2.658-.401-3.711-.988-1.835-2.748-1.429-4.434-1.493-1.065-.041-1.144-.072-.928.717h0Z"/>
    <path class="cls-1" d="M18.422,4.177c2.343-.539,3.045,3.079.817,3.633-2.377.592-3.345-3.052-.817-3.633h0ZM18.303,3.446c-1.297.25-2.465,1.431-2.122,3.087.264,1.275,1.481,2.299,3.088,2.014,3.333-.592,2.404-5.749-.965-5.101h0Z"/>
    <path class="cls-1" d="M5.85,6.463c-.771,2.518-4.179,1.293-3.565-.946.24-.874,1.122-1.598,2.22-1.331.844.206,1.673,1.205,1.345,2.277h0ZM3.566,3.454c-3.384.779-2.411,5.661,1.054,5.092,1.237-.203,2.318-1.532,1.995-3.085-.248-1.191-1.556-2.35-3.049-2.007h0Z"/>
  </g>
</svg>