<?xml version="1.0" encoding="UTF-8"?>
<svg id="Camada_2" data-name="Camada 2" xmlns="http://www.w3.org/2000/svg" viewBox="0 0 20.902 20.552">
  <defs>
    <style>
      .cls-1 {
        fill: #b68b42;
      }

      .cls-1, .cls-2 {
        fill-rule: evenodd;
      }

      .cls-2 {
        fill: #fefeff;
      }
    </style>
  </defs>
  <g id="Camada_1-2" data-name="Camada 1">
    <path class="cls-1" d="M9.355,3.773c4-.791,7.022,2.202,7.621,5.448.738,3.997-2.157,7.19-5.382,7.744-4.045.694-7.112-2.182-7.615-5.61-.571-3.891,2.201-6.953,5.377-7.582h0ZM9.029.104C-.17,1.366-3.077,12.979,3.773,18.272c2.006,1.55,4.835,2.563,8.114,2.21,5.197-.56,9.859-5.62,8.885-11.566C19.921,3.722,15.227-.745,9.029.104h0Z"/>
    <path class="cls-2" d="M8.08,10.934l1.923.01-.007,1.848-1.569.172-.347-2.03h0ZM12.667,12.904l-1.698-.069.012-1.886,1.916-.019-.23,1.974h0ZM15.005,13.624l-1.447-.477.351-2.206,2.081-.032c-.191,1.298-.526,1.814-.986,2.716h0ZM5.015,10.916l2.172.002.248,2.183c-.335.297-.989.417-1.494.561-.374-.996-.77-1.3-.926-2.746h0ZM12.637,7.798l.296,2.139-1.975-.027.02-1.895,1.659-.217h0ZM8.43,7.835l1.572.171.039,1.936-1.946-.012.335-2.095h0ZM15.052,7.159c.499,1.101.735,1.202.954,2.782l-2.101-.025-.326-2.33,1.473-.427h0ZM4.995,9.957c.189-1.535.542-1.747.963-2.817l1.521.436-.265,2.344-2.218.038h0ZM8.791,6.914c.597-3.003,3.109-2.324,3.43-.005l-1.311.117-.099-1.618-.753.063-.057,1.554-1.21-.111h0ZM9.355,3.773c-3.176.629-5.947,3.69-5.377,7.582.503,3.428,3.571,6.305,7.615,5.61,3.225-.554,6.12-3.747,5.382-7.744-.599-3.246-3.621-6.239-7.621-5.448h0Z"/>
  </g>
</svg>