<?xml version="1.0" encoding="UTF-8"?>
<svg id="Camada_2" data-name="Camada 2" xmlns="http://www.w3.org/2000/svg" viewBox="0 0 17.858 16.693">
  <defs>
    <style>
      .cls-1 {
        fill: #1b3c5f;
        fill-rule: evenodd;
      }
    </style>
  </defs>
  <g id="Camada_1-2" data-name="Camada 1">
    <path class="cls-1" d="M3.476,13.469c-.67-.487-2.601-.457-2.618-3.522-.011-1.966-.074-4.103-.004-6.052.065-1.8,1.155-2.986,2.977-3.027,2.009-.046,4.035.005,6.047-.014,1.489-.014,4.526-.223,5.625.389.586.327,1.143.988,1.351,1.722.271.958.234,7.91-.073,8.76-.278.77-.75,1.17-1.609,1.469-.598.208-.548.303-.399.964.095.42.198.789.26,1.228-2.662-1.266-1.188-2.109-5.565-2.092-.992.004-2.834-.116-3.715.121-.719.193-1.646,1.107-2.351,1.502l.073-1.448h0ZM2.735,13.921c-.056.634-.294,1.57-.116,2.155.604.216.994-.313,1.407-.612,2.448-1.772,1.941-1.387,5.443-1.363,2.971.02,2.162-.126,4.961,1.845.948.667.933.846,1.531.701.171-.725-.359-1.943-.413-2.777,1.716-.767,2.259-1.704,2.25-4.028-.007-1.895.153-4.554-.027-6.35-.173-1.728-1.342-3.018-2.93-3.35C13.903-.056,3.57-.065,2.634.234,1.09.728.078,2.069.035,3.998c-.045,2.015-.048,4.24-.001,6.254.044,1.914,1.183,3.273,2.701,3.669h0Z"/>
  </g>
</svg>