<?xml version="1.0" encoding="UTF-8"?>
<svg id="Camada_2" data-name="Camada 2" xmlns="http://www.w3.org/2000/svg" viewBox="0 0 20.916 21.119">
  <defs>
    <style>
      .cls-1 {
        fill: #b68b42;
      }

      .cls-1, .cls-2 {
        fill-rule: evenodd;
      }

      .cls-2 {
        fill: #fefeff;
      }
    </style>
  </defs>
  <g id="Camada_1-2" data-name="Camada 1">
    <path class="cls-1" d="M16.147,14.787l-.017,1.204c-.196,1.095-.999-.018-1.325-.315-.67-.611-.678-.471-1.796-.461l-3.358-.007c-.747-.145-.125-.18-.81-.484-1.553.71-3.154,2.813-3.272,1.011-.017-.262.013-.65.011-.933-1.296-.619-1.54-1.049-1.541-2.699-.001-1.476.026-2.972.009-4.444-.042-3.456,2.048-2.733,6.138-2.732,1.435,0,2.867.031,4.302.009,1.548-.023,2.402.437,2.491,1.929l-.008,6.569c-.05.832-.321.929-.824,1.353h0ZM9.141.101C3.874.812-.623,5.734.071,11.891c.598,5.305,5.574,9.962,11.744,9.131,5.414-.729,9.815-5.63,9.004-11.778C20.114,3.902,15.42-.748,9.141.101h0Z"/>
    <path class="cls-2" d="M5.628,11.696c0-1.166-.013-2.334-.007-3.5.01-1.746.37-1.543,2.01-1.547l3.091.019c4.159.044,4.623-.576,4.588,1.668-.09,5.742,1.444,5.018-5.932,4.998-1.205-.003-1.199.541-2.016,1.052l-.1-.549c-.179-.783-.317-.352-1.061-.573-.635-.189-.571-.8-.573-1.568h0ZM16.147,14.787c.503-.423.774-.52.824-1.353l.008-6.569c-.089-1.492-.944-1.952-2.491-1.929-1.435.022-2.867-.008-4.302-.009-4.09-.002-6.179-.724-6.138,2.732.018,1.472-.01,2.968-.009,4.444,0,1.65.245,2.081,1.541,2.699.002.283-.028.671-.011.933.118,1.802,1.719-.301,3.272-1.011.685.304.062.339.81.484l3.358.007c1.118-.01,1.126-.151,1.796.461.326.297,1.129,1.41,1.325.315l.017-1.204h0Z"/>
    <path class="cls-2" d="M9.737,10.793c.826,1.098,2.33-.296,1.555-1.543-.618-.994-2.417-.079-1.555,1.543h0Z"/>
    <path class="cls-2" d="M7.488,8.96c-1.01.468-.636,2.785.831,2.079.893-.43.553-2.721-.831-2.079h0Z"/>
    <path class="cls-2" d="M13.868,10.948c.117-.362.326-1.162.054-1.654-.253-.459-.981-.605-1.447-.15-.589.576-.496,2.476,1.393,1.803h0Z"/>
  </g>
</svg>