<?xml version="1.0" encoding="UTF-8"?>
<svg id="Camada_2" data-name="Camada 2" xmlns="http://www.w3.org/2000/svg" viewBox="0 0 26.896 19.727">
  <defs>
    <style>
      .cls-1 {
        fill: #1b3c5f;
        fill-rule: evenodd;
      }
    </style>
  </defs>
  <g id="Camada_1-2" data-name="Camada 1">
    <g>
      <path class="cls-1" d="M9.805,14.193c-.254.594-.125,3.683-.117,4.616-1.543.342-1.298-1.594-1.298-2.744-.001-2.415-.501-5.19,1.972-6.448.512-.26,1.084-.369,1.745-.354,1.11.026.616.615,1.222,1.005.752-.07.405-.785,1.137-.966.515-.128,1.477.05,1.915.23,2.556,1.054,2.127,3.95,2.12,6.226-.006,1.96.372,2.915-1.21,3.095-.033-.879-.004-1.799-.007-2.685-.003-.836.279-2.001-.543-2.007-.412.474-.229,1.823-.232,2.621-.002.643-.135,2.303.089,2.766.195.226,2.756.492,2.728-2.151-.035-3.255.667-6.506-2.022-8.277-.501-.329-1.188-.595-1.926-.628-1.848-.083-1.229.281-1.983.614-.771-1.087-2.691-.659-3.683-.041-2.258,1.406-2.134,3.547-2.12,6.283.005.846-.124,2.473.135,3.142.295.762,1.196,1.232,2.228,1.184.803-.038.515-1.245.515-2.891,0-1.697.264-2.743-.664-2.589h0Z"/>
      <path class="cls-1" d="M10.693,4.386c-.758-3.808,4.742-5.056,5.489-1.215.749,3.854-4.722,5.067-5.489,1.215h0ZM12.928.038c-1.83.258-3.405,2.147-3.069,4.335.29,1.888,1.917,3.456,4.154,3.136,1.776-.254,3.391-2.153,3.005-4.349-.319-1.815-1.905-3.43-4.091-3.123h0Z"/>
      <path class="cls-1" d="M21.307,3.929c1.395-.34,2.537.649,2.751,1.828.576,3.168-3.942,3.89-4.507.923-.265-1.388.694-2.492,1.756-2.751h0ZM21.351,3.126c-4.062.662-3.136,6.97,1.086,6.178,3.842-.721,2.892-6.826-1.086-6.178h0Z"/>
      <path class="cls-1" d="M4.536,3.945c2.913-.791,4.124,3.732,1.147,4.567-1.425.4-2.563-.688-2.801-1.776-.302-1.379.613-2.509,1.653-2.792h0ZM4.654,3.129c-4.088.625-3.101,6.98,1.084,6.179,1.473-.282,2.78-1.766,2.42-3.64-.296-1.54-1.657-2.821-3.504-2.538h0Z"/>
      <path class="cls-1" d="M5.132,10.52c-.206-.114-.033-.02-.227-.169-.772-.595-2.215-.24-2.963.166-.774.42-1.498,1.264-1.788,2.321-.158.576-.198,5.333-.102,5.958.09.585.497,1.083,1.154.822.292-.821-.264-.309-.399-1.09l.009-4.823c.122-1.988,1.574-3.029,3.614-2.865,1.032,1.689.75.437,1.39.069.403-.231,1.066-.055,1.538-.098.184-.321.185-.223.248-.595-1.113-.298-1.766-.304-2.474.305h0Z"/>
      <path class="cls-1" d="M19.388,10.328l.196.518,1.536-.034c.111.235.368.81.61.847.763-.138.302-1.367,2.358-.71.772.247,1.389.852,1.719,1.559.354.761.412,5.37.203,6.322-.297.243-.628.199-.418.733.481.464,1.032-.17,1.168-.533.217-.576.14-5.452.01-6.06-.64-3.002-4.078-3.478-4.938-2.448-.02-.013-.048-.062-.056-.044-.008.017-.044-.036-.056-.045-.814-.65-2.005-.398-2.333-.106h0Z"/>
      <path class="cls-1" d="M24.106,17.089c0,.749-.308,3.155.629,2.522.416-.281.149-4.65.069-4.875-.971-.276-.697.808-.698,2.353h0Z"/>
    </g>
  </g>
</svg>