<?xml version="1.0" encoding="UTF-8"?>
<svg id="Camada_2" data-name="Camada 2" xmlns="http://www.w3.org/2000/svg" viewBox="0 0 16.057 19.847">
  <defs>
    <style>
      .cls-1 {
        fill: #1b3c5f;
        fill-rule: evenodd;
      }
    </style>
  </defs>
  <g id="Camada_1-2" data-name="Camada 1">
    <path class="cls-1" d="M2.872,19.771c.171-.516.163-4.728.008-5.289l-.522-.056c-.439.638-.129,3.53-.212,4.608-.517-.001-.812-.027-1.182-.162-.226-.803-.224-5.874.018-6.725.307-1.079.814-1.587,1.525-2.06.524-.348,2.217-.863,2.843-.421.493.348.293.904.713,1.02.49.136.584-.613.787-.874.436-.561,3.47-.687,4.61,1.928.67,1.538-.183,2.73,1.024,2.374.613-2.16-1.08-5.064-3.797-5.336-1.753-.176-1.904-.067-2.496.68-.771-.657-.375-.723-1.809-.705-2.047.025-3.855,1.319-4.261,3.552-.22,1.209-.07,3.829-.071,5.186,0,.867-.027,1.67.549,2.046.497.325,1.621.38,2.275.234h0Z"/>
    <path class="cls-1" d="M3.266,4.48C2.646.25,8.365-.494,9.019,3.302c.306,1.778-.869,3.261-2.246,3.568-1.777.396-3.295-.94-3.508-2.389h0ZM5.634.045c-1.894.301-3.555,2.131-3.202,4.432.749,4.889,8.162,4.02,7.406-1.223C9.572,1.407,7.804-.3,5.634.045h0Z"/>
    <path class="cls-1" d="M9.056,19.777c.988.199.748-.675.712-2.901-.027-1.654.68-1.717,2.271-1.518l.044,1.765.649.028c.148-.519.078-1.177.102-1.775,3.749-.791,1.873,2.386,2.458,4.42l.53.031c.362-.529.22-3.747.13-4.068-.376-1.344-1.79-1.198-3.271-1.195-1.414.003-2.957-.211-3.531.93-.271.54-.268,3.747-.094,4.283h0Z"/>
  </g>
</svg>