<?xml version="1.0" encoding="UTF-8"?>
<svg id="Camada_2" data-name="Camada 2" xmlns="http://www.w3.org/2000/svg" viewBox="0 0 190.868 41.878">
  <defs>
    <style>
      .cls-1 {
        fill: #fff;
      }
    </style>
  </defs>
  <g id="Camada_1-2" data-name="Camada 1">
    <path class="cls-1" d="M53.793,17.085c1.599,0,2.322-.628,2.322-2.037,0-1.39-.723-2.037-2.322-2.037h-1.713v4.073h1.713ZM53.793,11.032c3.179,0,4.626,1.256,4.626,3.997,0,2.779-1.447,4.035-4.626,4.035h-1.713v4.169c0,.285-.152.438-.438.438h-1.409c-.285,0-.438-.152-.438-.438v-11.763c0-.285.152-.438.438-.438h3.559Z"/>
    <path class="cls-1" d="M61.787,19.122c0,1.885.78,2.798,2.36,2.798,1.599,0,2.36-.914,2.36-2.798v-3.54c0-1.884-.761-2.798-2.36-2.798-1.58,0-2.36.914-2.36,2.798v3.54h0ZM59.503,15.372c0-2.95,1.637-4.568,4.645-4.568,2.988,0,4.644,1.618,4.644,4.568v3.959c0,2.95-1.656,4.568-4.644,4.568-3.008,0-4.645-1.618-4.645-4.568v-3.959h0Z"/>
    <path class="cls-1" d="M77.394,15.619c0-1.77-.781-2.608-2.475-2.608h-1.846v8.68h1.846c1.694,0,2.475-.837,2.475-2.627v-3.445h0ZM75.034,11.032c3.103,0,4.645,1.447,4.645,4.378v3.864c0,2.932-1.542,4.397-4.645,4.397h-3.807c-.285,0-.438-.152-.438-.438v-11.763c0-.285.152-.438.438-.438h3.807Z"/>
    <path class="cls-1" d="M88.49,16.286c.286,0,.438.152.438.438v1.104c0,.286-.152.438-.438.438h-4.53v3.426h5.368c.285,0,.438.152.438.438v1.104c0,.285-.152.438-.438.438h-7.214c-.285,0-.438-.152-.438-.438v-11.763c0-.285.152-.438.438-.438h7.214c.285,0,.438.152.438.438v1.104c0,.285-.152.438-.438.438h-5.368v3.274h4.53Z"/>
    <path class="cls-1" d="M95.494,16.933c1.58,0,2.284-.628,2.284-1.941,0-1.352-.704-1.98-2.284-1.98h-1.656v3.921h1.656ZM93.838,23.233c0,.285-.152.438-.438.438h-1.409c-.285,0-.438-.152-.438-.438v-11.763c0-.285.152-.438.438-.438h3.502c3.103,0,4.587,1.275,4.587,3.902,0,1.98-.819,3.217-2.513,3.712l2.589,4.492c.171.305.057.533-.304.533h-1.637c-.247,0-.419-.095-.533-.305l-2.322-4.454h-1.523v4.321h0Z"/>
    <path class="cls-1" d="M113.062,19.483c0,2.855-1.484,4.416-4.226,4.416-1.789,0-3.179-.666-4.035-1.941-.152-.228-.115-.438.095-.609l.895-.742c.228-.19.438-.152.609.076.59.799,1.37,1.238,2.303,1.238,1.352,0,2.075-.895,2.075-2.627v-7.823c0-.285.153-.438.438-.438h1.409c.285,0,.438.152.438.438v8.014h0Z"/>
    <path class="cls-1" d="M123.872,19.483c0,2.855-1.561,4.416-4.397,4.416s-4.397-1.561-4.397-4.416v-8.014c0-.285.152-.438.438-.438h1.409c.285,0,.438.152.438.438v7.842c0,1.77.685,2.608,2.132,2.608,1.466,0,2.151-.838,2.151-2.608v-7.842c0-.285.152-.438.438-.438h1.352c.285,0,.438.152.438.438v8.014h0Z"/>
    <path class="cls-1" d="M132.684,15.619c0-1.77-.78-2.608-2.475-2.608h-1.846v8.68h1.846c1.694,0,2.475-.837,2.475-2.627v-3.445h0ZM130.324,11.032c3.103,0,4.645,1.447,4.645,4.378v3.864c0,2.932-1.542,4.397-4.645,4.397h-3.807c-.285,0-.438-.152-.438-.438v-11.763c0-.285.152-.438.438-.438h3.807Z"/>
    <path class="cls-1" d="M139.251,23.233c0,.285-.152.438-.438.438h-1.409c-.285,0-.438-.152-.438-.438v-11.763c0-.285.153-.438.438-.438h1.409c.286,0,.438.152.438.438v11.763h0Z"/>
    <path class="cls-1" d="M148.006,20.721c.152-.247.361-.323.609-.172l.99.59c.228.152.304.362.152.609-.837,1.447-2.151,2.151-3.959,2.151-2.95,0-4.549-1.618-4.549-4.568v-3.959c0-2.95,1.599-4.568,4.549-4.568,1.846,0,3.16.723,3.978,2.151.133.247.076.457-.171.609l-.971.609c-.247.152-.457.095-.609-.152-.514-.799-1.237-1.237-2.227-1.237-1.504,0-2.265.952-2.265,2.798v3.54c0,1.846.761,2.798,2.265,2.798.99,0,1.694-.419,2.208-1.199h0Z"/>
    <path class="cls-1" d="M153.525,23.233c0,.285-.152.438-.438.438h-1.409c-.285,0-.438-.152-.438-.438v-11.763c0-.285.152-.438.438-.438h1.409c.285,0,.438.152.438.438v11.763h0Z"/>
    <path class="cls-1" d="M159.539,9.833c-.304,0-.419-.19-.266-.457l1.352-2.265c.114-.19.247-.266.457-.266h1.371c.324,0,.419.209.248.457l-1.58,2.284c-.114.172-.266.247-.457.247h-1.123ZM160.129,13.716l-1.656,5.672h3.35l-1.656-5.672h-.038ZM165.345,23.176c.095.305-.057.495-.362.495h-1.504c-.266,0-.419-.115-.495-.362l-.59-1.979h-4.492l-.59,1.979c-.076.247-.228.362-.495.362h-1.428c-.324,0-.457-.19-.362-.495l3.826-11.782c.076-.247.228-.362.495-.362h1.675c.266,0,.418.114.494.362l3.826,11.782h0Z"/>
    <path class="cls-1" d="M170.788,16.933c1.58,0,2.284-.628,2.284-1.941,0-1.352-.704-1.98-2.284-1.98h-1.656v3.921h1.656ZM169.132,23.233c0,.285-.152.438-.438.438h-1.409c-.285,0-.438-.152-.438-.438v-11.763c0-.285.152-.438.438-.438h3.502c3.103,0,4.587,1.275,4.587,3.902,0,1.98-.819,3.217-2.513,3.712l2.589,4.492c.171.305.057.533-.305.533h-1.637c-.247,0-.419-.095-.533-.305l-2.322-4.454h-1.523v4.321h0Z"/>
    <path class="cls-1" d="M179.581,23.233c0,.285-.152.438-.438.438h-1.409c-.285,0-.438-.152-.438-.438v-11.763c0-.285.152-.438.438-.438h1.409c.285,0,.438.152.438.438v11.763h0Z"/>
    <path class="cls-1" d="M183.863,19.122c0,1.885.78,2.798,2.36,2.798,1.599,0,2.36-.914,2.36-2.798v-3.54c0-1.884-.761-2.798-2.36-2.798-1.58,0-2.36.914-2.36,2.798v3.54h0ZM181.579,15.372c0-2.95,1.637-4.568,4.645-4.568,2.989,0,4.645,1.618,4.645,4.568v3.959c0,2.95-1.656,4.568-4.645,4.568-3.007,0-4.645-1.618-4.645-4.568v-3.959h0Z"/>
    <path class="cls-1" d="M51.403,33.619c0,.071-.036.107-.107.107h-.249c-.071,0-.107-.036-.107-.107v-4.224h-1.256c-.071,0-.107-.035-.107-.107v-.193c0-.071.035-.107.107-.107h2.968c.071,0,.107.036.107.107v.193c0,.071-.036.107-.107.107h-1.249v4.224h0Z"/>
    <path class="cls-1" d="M54.878,31.379c.821,0,1.185-.307,1.185-.992,0-.678-.364-.992-1.185-.992h-.92v1.984h.92ZM53.958,31.786v1.834c0,.071-.036.107-.107.107h-.25c-.071,0-.107-.036-.107-.107v-4.524c0-.071.036-.107.107-.107h1.277c1.127,0,1.655.442,1.655,1.391,0,.785-.357,1.227-1.106,1.363l1.17,1.855c.043.071.014.128-.071.128h-.314c-.057,0-.1-.022-.128-.071l-1.134-1.87h-.992Z"/>
    <path class="cls-1" d="M58.004,33.619c0,.071-.036.107-.107.107h-.25c-.071,0-.107-.036-.107-.107v-4.524c0-.071.035-.107.107-.107h.25c.071,0,.107.036.107.107v4.524h0Z"/>
    <path class="cls-1" d="M60.73,33.32c.777,0,1.127-.278,1.127-.899,0-.621-.35-.899-1.127-.899h-1.063v1.798h1.063ZM60.609,31.115c.778,0,1.12-.264,1.12-.856,0-.599-.342-.863-1.12-.863h-.942v1.72h.942ZM61.436,31.308c.607.143.885.514.885,1.163,0,.863-.492,1.256-1.584,1.256h-1.427c-.071,0-.107-.036-.107-.107v-4.524c0-.071.036-.107.107-.107h1.299c1.092,0,1.584.378,1.584,1.22,0,.578-.242.935-.756,1.092v.007h0Z"/>
    <path class="cls-1" d="M66.303,32.157c0,1.085-.557,1.655-1.584,1.655s-1.584-.571-1.584-1.655v-3.061c0-.071.036-.107.107-.107h.25c.071,0,.107.036.107.107v2.997c0,.892.364,1.312,1.127,1.312s1.127-.421,1.127-1.312v-2.997c0-.071.036-.107.107-.107h.235c.071,0,.107.036.107.107v3.061h0Z"/>
    <path class="cls-1" d="M70.663,33.619c0,.071-.036.107-.107.107h-.264c-.057,0-.1-.022-.128-.071l-2.29-3.91h-.007v3.874c0,.071-.036.107-.107.107h-.235c-.071,0-.107-.036-.107-.107v-4.524c0-.071.036-.107.107-.107h.314c.057,0,.1.022.128.071l2.241,3.839h.007v-3.803c0-.071.036-.107.107-.107h.235c.071,0,.107.036.107.107v4.524h0Z"/>
    <path class="cls-1" d="M74.246,32.243l-.914-2.683h-.007l-.906,2.683h1.827ZM71.942,33.641c-.022.057-.057.086-.122.086h-.257c-.078,0-.114-.05-.086-.121l1.584-4.531c.021-.057.057-.086.121-.086h.307c.064,0,.1.029.121.086l1.584,4.531c.028.071-.007.121-.086.121h-.271c-.064,0-.1-.028-.121-.086l-.335-.992h-2.105l-.335.992h0Z"/>
    <path class="cls-1" d="M78.813,33.619c0,.071-.036.107-.107.107h-2.59c-.071,0-.107-.036-.107-.107v-4.524c0-.071.035-.107.107-.107h.25c.071,0,.107.036.107.107v4.224h2.233c.071,0,.107.036.107.107v.192h0Z"/>
    <path class="cls-1" d="M83.809,30.687c0-.877-.392-1.291-1.22-1.291h-1.042v3.924h1.042c.828,0,1.22-.414,1.22-1.291v-1.342h0ZM82.61,28.989c1.099,0,1.663.549,1.663,1.62v1.498c0,1.07-.564,1.619-1.663,1.619h-1.42c-.071,0-.107-.036-.107-.107v-4.524c0-.071.035-.107.107-.107h1.42Z"/>
    <path class="cls-1" d="M87.784,31.129c.071,0,.107.036.107.107v.193c0,.071-.036.107-.107.107h-2.026v1.784h2.341c.071,0,.107.036.107.107v.192c0,.071-.036.107-.107.107h-2.697c-.071,0-.107-.036-.107-.107v-4.524c0-.071.036-.107.107-.107h2.697c.071,0,.107.036.107.107v.193c0,.071-.036.107-.107.107h-2.341v1.734h2.026Z"/>
    <path class="cls-1" d="M93.25,32.157c0,1.085-.535,1.655-1.541,1.655-.656,0-1.149-.264-1.456-.785-.035-.057-.021-.107.029-.143l.171-.128c.057-.043.114-.029.15.036.242.407.607.613,1.085.613.742,0,1.099-.428,1.099-1.32v-2.989c0-.071.036-.107.107-.107h.25c.071,0,.107.036.107.107v3.061h0Z"/>
    <path class="cls-1" d="M97.446,32.157c0,1.085-.557,1.655-1.584,1.655s-1.584-.571-1.584-1.655v-3.061c0-.071.036-.107.107-.107h.25c.071,0,.107.036.107.107v2.997c0,.892.364,1.312,1.127,1.312s1.127-.421,1.127-1.312v-2.997c0-.071.036-.107.107-.107h.236c.071,0,.107.036.107.107v3.061h0Z"/>
    <path class="cls-1" d="M101.214,29.51c.043.057.029.107-.021.15l-.171.135c-.057.05-.107.036-.15-.021-.235-.307-.592-.464-1.063-.464-.642,0-1.049.364-1.049.928,0,.514.285.771,1.177.913,1.071.171,1.441.564,1.441,1.32,0,.806-.592,1.341-1.491,1.341-.721,0-1.277-.243-1.641-.713-.035-.05-.028-.1.022-.15l.15-.136c.057-.05.114-.043.157.014.293.386.735.578,1.292.578.642,0,1.049-.364,1.049-.927,0-.507-.278-.749-1.163-.899-1.077-.185-1.455-.556-1.455-1.334,0-.806.592-1.341,1.491-1.341.635,0,1.106.2,1.427.607h0Z"/>
    <path class="cls-1" d="M103.541,33.619c0,.071-.035.107-.107.107h-.25c-.071,0-.107-.036-.107-.107v-4.224h-1.255c-.071,0-.107-.035-.107-.107v-.193c0-.071.036-.107.107-.107h2.968c.071,0,.107.036.107.107v.193c0,.071-.036.107-.107.107h-1.249v4.224h0Z"/>
    <path class="cls-1" d="M106.095,33.619c0,.071-.035.107-.107.107h-.25c-.071,0-.107-.036-.107-.107v-4.524c0-.071.035-.107.107-.107h.25c.071,0,.107.036.107.107v4.524h0Z"/>
    <path class="cls-1" d="M110.191,32.799c.064.036.079.086.05.143-.271.549-.721.835-1.377.87l-.057.271c.328.014.514.164.514.407,0,.293-.228.463-.621.463-.207,0-.378-.043-.535-.135-.043-.029-.05-.064-.029-.114l.057-.114c.029-.05.064-.057.114-.029.107.057.236.1.364.1.221,0,.321-.093.321-.193,0-.15-.135-.193-.414-.193-.057,0-.086-.036-.071-.093l.078-.378c-.963-.057-1.47-.642-1.47-1.705v-1.484c0-1.12.564-1.713,1.627-1.713.721,0,1.213.286,1.498.871.029.057.014.107-.05.143l-.179.1c-.064.028-.114.014-.143-.05-.221-.428-.585-.657-1.127-.657-.785,0-1.163.456-1.163,1.384v1.327c0,.928.378,1.384,1.163,1.384.542,0,.906-.228,1.127-.656.029-.064.079-.079.143-.05l.179.1h0Z"/>
    <path class="cls-1" d="M113.467,32.243l-.913-2.683h-.007l-.906,2.683h1.827ZM111.163,33.641c-.022.057-.057.086-.122.086h-.257c-.078,0-.114-.05-.086-.121l1.584-4.531c.022-.057.057-.086.121-.086h.307c.064,0,.1.029.121.086l1.584,4.531c.029.071-.007.121-.086.121h-.271c-.064,0-.1-.028-.121-.086l-.335-.992h-2.105l-.335.992h0Z"/>
    <path class="cls-1" d="M119.49,30.687c0-.877-.393-1.291-1.22-1.291h-1.042v3.924h1.042c.828,0,1.22-.414,1.22-1.291v-1.342h0ZM118.291,28.989c1.099,0,1.662.549,1.662,1.62v1.498c0,1.07-.564,1.619-1.662,1.619h-1.42c-.071,0-.107-.036-.107-.107v-4.524c0-.071.036-.107.107-.107h1.42Z"/>
    <path class="cls-1" d="M123.465,31.129c.071,0,.107.036.107.107v.193c0,.071-.036.107-.107.107h-2.026v1.784h2.34c.071,0,.107.036.107.107v.192c0,.071-.036.107-.107.107h-2.697c-.071,0-.107-.036-.107-.107v-4.524c0-.071.036-.107.107-.107h2.697c.071,0,.107.036.107.107v.193c0,.071-.036.107-.107.107h-2.34v1.734h2.026Z"/>
    <path class="cls-1" d="M130.958,33.619c0,.071-.036.107-.107.107h-.25c-.071,0-.107-.036-.107-.107v-3.981h-.007l-1.591,4.003c-.022.057-.064.086-.129.086h-.235c-.064,0-.107-.028-.129-.086l-1.598-4.024h-.007v4.003c0,.071-.035.107-.107.107h-.236c-.071,0-.107-.036-.107-.107v-4.524c0-.071.036-.107.107-.107h.485c.064,0,.107.029.128.086l1.584,3.982,1.577-3.982c.022-.057.064-.086.128-.086h.492c.071,0,.107.036.107.107v4.524h0Z"/>
    <path class="cls-1" d="M134.541,32.243l-.913-2.683h-.007l-.906,2.683h1.827ZM132.236,33.641c-.022.057-.057.086-.122.086h-.257c-.078,0-.114-.05-.086-.121l1.584-4.531c.022-.057.057-.086.121-.086h.307c.064,0,.1.029.121.086l1.584,4.531c.029.071-.007.121-.086.121h-.271c-.064,0-.1-.028-.121-.086l-.335-.992h-2.105l-.335.992h0Z"/>
    <path class="cls-1" d="M137.117,33.619c0,.071-.036.107-.107.107h-.25c-.071,0-.107-.036-.107-.107v-4.224h-1.256c-.071,0-.107-.035-.107-.107v-.193c0-.071.036-.107.107-.107h2.968c.071,0,.107.036.107.107v.193c0,.071-.035.107-.107.107h-1.249v4.224h0Z"/>
    <path class="cls-1" d="M139.38,32.021c0,.935.393,1.384,1.199,1.384.814,0,1.206-.449,1.206-1.384v-1.327c0-.935-.393-1.384-1.206-1.384-.806,0-1.199.45-1.199,1.384v1.327h0ZM138.916,30.616c0-1.12.578-1.713,1.663-1.713,1.092,0,1.67.592,1.67,1.713v1.484c0,1.12-.578,1.712-1.67,1.712-1.084,0-1.663-.592-1.663-1.712v-1.484h0Z"/>
    <path class="cls-1" d="M147.914,32.085c0,1.128-.564,1.727-1.641,1.727-1.07,0-1.648-.592-1.648-1.712v-1.484c0-1.12.578-1.713,1.663-1.713.735,0,1.242.293,1.534.871.028.057.014.107-.05.143l-.178.1c-.064.028-.114.014-.15-.05-.221-.428-.599-.657-1.156-.657-.806,0-1.199.45-1.199,1.384v1.327c0,.935.392,1.384,1.191,1.384.806,0,1.191-.456,1.191-1.398v-.342h-1.034c-.071,0-.107-.036-.107-.107v-.193c0-.071.036-.107.107-.107h1.37c.071,0,.107.035.107.107v.72h0Z"/>
    <path class="cls-1" d="M150.248,31.379c.82,0,1.184-.307,1.184-.992,0-.678-.364-.992-1.184-.992h-.921v1.984h.921ZM149.327,31.786v1.834c0,.071-.036.107-.107.107h-.25c-.071,0-.107-.036-.107-.107v-4.524c0-.071.035-.107.107-.107h1.277c1.127,0,1.655.442,1.655,1.391,0,.785-.357,1.227-1.106,1.363l1.17,1.855c.043.071.014.128-.071.128h-.314c-.057,0-.1-.022-.128-.071l-1.134-1.87h-.992Z"/>
    <path class="cls-1" d="M153.174,32.021c0,.935.392,1.384,1.198,1.384.814,0,1.206-.449,1.206-1.384v-1.327c0-.935-.392-1.384-1.206-1.384-.806,0-1.199.45-1.199,1.384v1.327h0ZM152.71,30.616c0-1.12.578-1.713,1.663-1.713,1.092,0,1.67.592,1.67,1.713v1.484c0,1.12-.578,1.712-1.67,1.712-1.085,0-1.663-.592-1.663-1.712v-1.484h0Z"/>
    <path class="cls-1" d="M159.718,29.51c.043.057.028.107-.022.15l-.171.135c-.057.05-.107.036-.15-.021-.235-.307-.592-.464-1.063-.464-.642,0-1.049.364-1.049.928,0,.514.286.771,1.178.913,1.07.171,1.441.564,1.441,1.32,0,.806-.592,1.341-1.491,1.341-.721,0-1.277-.243-1.641-.713-.036-.05-.029-.1.021-.15l.15-.136c.057-.05.114-.043.157.014.292.386.735.578,1.291.578.642,0,1.049-.364,1.049-.927,0-.507-.278-.749-1.163-.899-1.077-.185-1.455-.556-1.455-1.334,0-.806.592-1.341,1.491-1.341.635,0,1.106.2,1.427.607h0Z"/>
    <path class="cls-1" d="M163.336,29.51c.043.057.029.107-.021.15l-.171.135c-.057.05-.107.036-.15-.021-.235-.307-.592-.464-1.063-.464-.642,0-1.049.364-1.049.928,0,.514.285.771,1.177.913,1.07.171,1.441.564,1.441,1.32,0,.806-.592,1.341-1.491,1.341-.721,0-1.277-.243-1.641-.713-.036-.05-.029-.1.021-.15l.15-.136c.057-.05.114-.043.157.014.293.386.735.578,1.291.578.642,0,1.049-.364,1.049-.927,0-.507-.278-.749-1.163-.899-1.077-.185-1.455-.556-1.455-1.334,0-.806.592-1.341,1.491-1.341.635,0,1.106.2,1.427.607h0Z"/>
    <path class="cls-1" d="M164.585,32.021c0,.935.392,1.384,1.198,1.384.814,0,1.206-.449,1.206-1.384v-1.327c0-.935-.393-1.384-1.206-1.384-.806,0-1.198.45-1.198,1.384v1.327h0ZM164.121,30.616c0-1.12.578-1.713,1.662-1.713,1.092,0,1.67.592,1.67,1.713v1.484c0,1.12-.578,1.712-1.67,1.712-1.084,0-1.662-.592-1.662-1.712v-1.484h0Z"/>
    <path class="cls-1" d="M172.735,30.687c0-.877-.393-1.291-1.22-1.291h-1.042v3.924h1.042c.828,0,1.22-.414,1.22-1.291v-1.342h0ZM171.536,28.989c1.099,0,1.662.549,1.662,1.62v1.498c0,1.07-.564,1.619-1.662,1.619h-1.42c-.071,0-.107-.036-.107-.107v-4.524c0-.071.036-.107.107-.107h1.42Z"/>
    <path class="cls-1" d="M174.505,32.021c0,.935.392,1.384,1.199,1.384.813,0,1.206-.449,1.206-1.384v-1.327c0-.935-.392-1.384-1.206-1.384-.806,0-1.199.45-1.199,1.384v1.327h0ZM174.041,30.616c0-1.12.578-1.713,1.663-1.713,1.091,0,1.669.592,1.669,1.713v1.484c0,1.12-.578,1.712-1.669,1.712-1.085,0-1.663-.592-1.663-1.712v-1.484h0Z"/>
    <path class="cls-1" d="M182.582,29.51c.043.057.029.107-.021.15l-.171.135c-.057.05-.107.036-.15-.021-.235-.307-.592-.464-1.063-.464-.642,0-1.049.364-1.049.928,0,.514.285.771,1.178.913,1.07.171,1.441.564,1.441,1.32,0,.806-.592,1.341-1.491,1.341-.721,0-1.277-.243-1.641-.713-.036-.05-.029-.1.021-.15l.15-.136c.057-.05.114-.043.157.014.292.386.734.578,1.291.578.642,0,1.049-.364,1.049-.927,0-.507-.278-.749-1.163-.899-1.077-.185-1.455-.556-1.455-1.334,0-.806.592-1.341,1.491-1.341.635,0,1.106.2,1.427.607h0Z"/>
    <path class="cls-1" d="M186.629,32.157c0,1.085-.556,1.655-1.584,1.655s-1.584-.571-1.584-1.655v-3.061c0-.071.036-.107.107-.107h.25c.071,0,.107.036.107.107v2.997c0,.892.364,1.312,1.127,1.312s1.127-.421,1.127-1.312v-2.997c0-.071.036-.107.107-.107h.236c.071,0,.107.036.107.107v3.061h0Z"/>
    <path class="cls-1" d="M190.547,33.619c0,.071-.036.107-.107.107h-2.59c-.071,0-.107-.036-.107-.107v-4.524c0-.071.036-.107.107-.107h.25c.071,0,.107.036.107.107v4.224h2.233c.071,0,.107.036.107.107v.192h0Z"/>
    <path class="cls-1" d="M17.851,38.135c.82.122,1.194.881,1.245,1.824-.83-.292-1.357-.931-1.245-1.824h0Z"/>
    <path class="cls-1" d="M16.682,41.785c.771.303,1.477-.162,1.999-.949-.867-.166-1.643.122-1.999.949h0Z"/>
    <path class="cls-1" d="M16.552,39.657c.722-.427,1.481-.083,2.1.611-.833.306-1.64.149-2.1-.611h0Z"/>
    <path class="cls-1" d="M19.357,40.719c.035-.113.155-.175.263-.142.111.034.173.152.138.265-.035.113-.153.179-.264.145-.108-.033-.171-.155-.137-.268h0Z"/>
    <path class="cls-1" d="M19.505,40.106c.035-.113.154-.178.266-.144.109.034.17.154.135.267-.034.11-.151.177-.261.143-.112-.034-.174-.156-.14-.266h0Z"/>
    <path class="cls-1" d="M19.091,40.344c.035-.115.153-.181.264-.147.11.034.17.154.135.269-.034.112-.151.176-.261.142-.112-.035-.172-.153-.138-.265h0Z"/>
    <path class="cls-1" d="M14.474,36.97c.782.274,1.006,1.091.878,2.026-.76-.444-1.157-1.171-.878-2.026h0Z"/>
    <path class="cls-1" d="M12.635,40.332c.7.444,1.481.12,2.142-.554-.82-.327-1.636-.191-2.142.554h0Z"/>
    <path class="cls-1" d="M12.91,38.218c.79-.283,1.47.198,1.947.997-.876.143-1.639-.163-1.947-.997h0Z"/>
    <path class="cls-1" d="M15.464,39.792c.056-.105.185-.143.285-.09.103.055.141.182.086.287-.056.105-.184.147-.287.092-.1-.053-.139-.185-.084-.289h0Z"/>
    <path class="cls-1" d="M15.725,39.218c.056-.104.185-.146.289-.091.101.054.137.183.082.288-.054.101-.182.145-.283.091-.103-.055-.141-.186-.088-.288h0Z"/>
    <path class="cls-1" d="M15.274,39.373c.056-.107.184-.149.287-.094.102.054.138.184.082.29-.055.103-.182.145-.283.09-.103-.055-.14-.183-.086-.286h0Z"/>
    <path class="cls-1" d="M11.378,35.187c.716.417.782,1.262.479,2.155-.663-.579-.914-1.368-.479-2.155h0Z"/>
    <path class="cls-1" d="M8.937,38.142c.603.568,1.432.398,2.208-.139-.743-.476-1.57-.497-2.208.139h0Z"/>
    <path class="cls-1" d="M9.606,36.117c.829-.128,1.406.473,1.724,1.347-.887-.025-1.579-.471-1.724-1.347h0Z"/>
    <path class="cls-1" d="M11.817,38.146c.074-.092.208-.105.296-.035.091.073.105.205.03.298-.074.092-.208.11-.299.036-.088-.071-.102-.207-.027-.299h0Z"/>
    <path class="cls-1" d="M12.182,37.631c.074-.092.209-.108.3-.035.089.072.1.206.026.298-.072.09-.206.108-.295.036-.091-.073-.104-.209-.031-.299h0Z"/>
    <path class="cls-1" d="M11.709,37.698c.075-.094.209-.112.3-.038.09.073.101.207.025.301-.073.091-.206.107-.296.035-.091-.073-.103-.207-.03-.297h0Z"/>
    <path class="cls-1" d="M8.674,32.851c.624.545.529,1.386.063,2.207-.541-.694-.639-1.517-.063-2.207h0Z"/>
    <path class="cls-1" d="M5.719,35.291c.485.672,1.331.662,2.195.281-.64-.608-1.449-.785-2.195-.281h0Z"/>
    <path class="cls-1" d="M6.759,33.43c.838.031,1.291.73,1.438,1.648-.866-.192-1.461-.76-1.438-1.648h0Z"/>
    <path class="cls-1" d="M8.546,35.84c.09-.077.225-.064.298.022.075.089.064.221-.027.298-.09.077-.225.068-.301-.021-.073-.086-.061-.223.029-.299h0Z"/>
    <path class="cls-1" d="M9.002,35.403c.09-.077.226-.067.302.023.074.088.06.221-.031.298-.088.075-.223.067-.297-.021-.076-.089-.062-.225.026-.3h0Z"/>
    <path class="cls-1" d="M8.525,35.379c.092-.078.226-.07.302.019.075.088.06.222-.032.3-.089.076-.222.067-.297-.021-.076-.089-.062-.222.027-.298h0Z"/>
    <path class="cls-1" d="M6.461,30.046c.51.653.257,1.462-.355,2.18-.4-.784-.341-1.61.355-2.18h0Z"/>
    <path class="cls-1" d="M3.098,31.884c.349.751,1.182.901,2.102.69-.513-.718-1.274-1.044-2.102-.69h0Z"/>
    <path class="cls-1" d="M4.471,30.252c.818.189,1.13.961,1.1,1.891-.814-.353-1.291-1.023-1.1-1.891h0Z"/>
    <path class="cls-1" d="M5.77,32.956c.103-.058.233-.021.288.078.057.102.021.23-.082.287-.103.058-.234.024-.291-.077-.055-.099-.017-.23.086-.288h0Z"/>
    <path class="cls-1" d="M6.301,32.614c.103-.058.234-.022.292.079.056.1.017.228-.086.286-.1.056-.231.024-.287-.076-.057-.102-.019-.233.082-.29h0Z"/>
    <path class="cls-1" d="M5.837,32.501c.105-.059.235-.026.293.076.056.101.017.23-.088.289-.102.057-.231.023-.287-.077-.057-.102-.019-.23.083-.287h0Z"/>
    <path class="cls-1" d="M4.818,26.874c.377.738-.024,1.484-.761,2.073-.245-.845-.03-1.645.761-2.073h0Z"/>
    <path class="cls-1" d="M1.168,28.042c.201.804.99,1.109,1.934,1.076-.368-.803-1.053-1.267-1.934-1.076h0Z"/>
    <path class="cls-1" d="M2.825,26.7c.767.34.928,1.158.723,2.064-.733-.5-1.075-1.249-.723-2.064h0Z"/>
    <path class="cls-1" d="M3.59,29.601c.113-.038.232.024.268.131.037.111-.023.229-.135.267-.112.037-.235-.02-.272-.131-.036-.107.026-.23.139-.267h0Z"/>
    <path class="cls-1" d="M4.175,29.364c.112-.037.234.022.272.133.036.109-.027.228-.139.265-.109.037-.231-.02-.268-.129-.037-.111.026-.232.135-.269h0Z"/>
    <path class="cls-1" d="M3.741,29.166c.115-.038.236.019.273.13.037.109-.027.228-.141.266-.111.037-.231-.021-.268-.13-.037-.111.025-.229.135-.266h0Z"/>
    <path class="cls-1" d="M3.805,23.447c.231.796-.304,1.453-1.139,1.892-.081-.876.281-1.621,1.139-1.891h0Z"/>
    <path class="cls-1" d="M0,23.905c.045.827.763,1.276,1.696,1.422-.21-.857-.795-1.443-1.696-1.422h0Z"/>
    <path class="cls-1" d="M1.88,22.9c.689.479.693,1.312.32,2.164-.625-.63-.819-1.429-.32-2.164h0Z"/>
    <path class="cls-1" d="M2.083,25.893c.117-.016.224.067.238.179.016.116-.066.221-.183.236-.117.016-.227-.064-.242-.18-.015-.112.069-.22.187-.236h0Z"/>
    <path class="cls-1" d="M2.703,25.772c.117-.016.226.066.242.182.015.113-.069.218-.187.234-.114.015-.223-.064-.238-.177-.016-.116.069-.223.183-.238h0Z"/>
    <path class="cls-1" d="M2.314,25.495c.119-.016.228.063.244.179.015.114-.069.219-.189.235-.116.016-.223-.064-.238-.178-.016-.116.067-.221.183-.236h0Z"/>
    <path class="cls-1" d="M26.424,38.48c-.29.39-.134,1.459-.525,1.539-.327.073-.525.12-.653-.293-.048-.726.467-1.09,1.178-1.247h0Z"/>
    <path class="cls-1" d="M26.739,39.491s.207-.405.774-.243c.571.165.457.312.457.312-.5-.126-1.038-.089-1.231-.069h0Z"/>
    <path class="cls-1" d="M25.867,40.583c.07.396.096.333-.063.535,0,0,.425.412.904.416.425-.022.588-.305.972-.437.384-.128.596-.197.596-.197,0,0-.478-.294-1.189-.412-.709-.117-1.22.095-1.22.095h0Z"/>
    <path class="cls-1" d="M26.614,39.69c.576-.107,1.049-.139,2.347.17-.684.46-.738.63-1.293.495-.709-.177-1.541-.193-1.541-.193.291-.119.442-.276.487-.471h0Z"/>
    <path class="cls-1" d="M25.103,39.935c.151.076.208.272.13.439-.079.167-.266.242-.417.169-.152-.076-.209-.272-.132-.44.079-.167.268-.241.42-.169h0Z"/>
    <path class="cls-1" d="M25.267,40.886c.153.075.211.27.133.44-.082.166-.267.244-.419.169-.154-.078-.211-.272-.131-.439.08-.166.269-.244.417-.17h0Z"/>
    <path class="cls-1" d="M30.37,37.134c-.198.444.186,1.454-.178,1.617-.303.142-.486.231-.701-.143-.205-.698.219-1.166.879-1.473h0Z"/>
    <path class="cls-1" d="M30.897,38.053s.115-.44.703-.406c.593.037.513.206.513.206-.516-.014-1.033.138-1.216.2h0Z"/>
    <path class="cls-1" d="M30.283,39.309c.154.371.166.304.054.536,0,0,.504.31.973.21.41-.114.507-.426.854-.638.348-.208.539-.322.539-.322,0,0-.531-.183-1.25-.144-.718.04-1.171.358-1.171.358h0Z"/>
    <path class="cls-1" d="M30.818,38.274c.539-.23.994-.364,2.328-.344-.567.597-.584.775-1.155.764-.73-.019-1.547.146-1.547.146.258-.179.371-.366.373-.566h0Z"/>
    <path class="cls-1" d="M29.396,38.841c.164.041.262.22.221.401-.04.18-.207.294-.37.255-.165-.041-.263-.22-.224-.401.041-.18.209-.294.373-.256h0Z"/>
    <path class="cls-1" d="M29.763,39.734c.166.04.265.218.225.401-.044.18-.208.296-.373.255-.166-.042-.265-.22-.223-.4.042-.179.209-.296.37-.256h0Z"/>
    <path class="cls-1" d="M33.929,34.964c-.098.476.497,1.378.177,1.617-.266.204-.424.331-.715.012-.352-.637-.039-1.185.539-1.629h0Z"/>
    <path class="cls-1" d="M34.643,35.746s.016-.455.598-.549c.587-.092.546.089.546.089-.507.098-.978.359-1.143.459h0Z"/>
    <path class="cls-1" d="M34.316,37.105c.231.328.228.261.17.511,0,0,.559.194.995-.007.375-.201.403-.526.695-.808.294-.278.457-.431.457-.431,0,0-.558-.063-1.251.13-.692.195-1.065.604-1.065.604h0Z"/>
    <path class="cls-1" d="M34.614,35.979c.476-.341.891-.571,2.198-.841-.425.706-.402.883-.961.996-.717.141-1.478.478-1.478.478.213-.231.283-.437.241-.634h0Z"/>
    <path class="cls-1" d="M33.35,36.841c.169.005.303.158.303.344,0,.184-.138.332-.306.33-.17-.005-.304-.157-.306-.342.001-.185.141-.332.309-.331h0Z"/>
    <path class="cls-1" d="M33.902,37.634c.17.003.306.156.307.342-.004.185-.139.334-.308.33-.172-.005-.306-.157-.305-.342.002-.184.14-.335.306-.331h0Z"/>
    <path class="cls-1" d="M36.933,32.073c.009.486.784,1.238.524,1.54-.215.257-.342.415-.696.167-.481-.545-.296-1.148.172-1.707h0Z"/>
    <path class="cls-1" d="M37.799,32.681s-.083-.448.464-.666c.553-.217.552-.031.552-.031-.473.205-.877.564-1.017.697h0Z"/>
    <path class="cls-1" d="M37.776,34.079c.297.271.279.206.276.462,0,0,.588.068.97-.223.323-.277.279-.6.503-.939.227-.336.352-.52.352-.52,0,0-.558.059-1.193.399-.633.34-.908.82-.908.82h0Z"/>
    <path class="cls-1" d="M37.822,32.915c.391-.436.746-.751,1.963-1.298-.261.782-.2.949-.722,1.181-.669.293-1.339.788-1.339.788.158-.272.181-.488.098-.671h0Z"/>
    <path class="cls-1" d="M36.775,34.031c.166-.032.331.088.371.269.04.18-.063.354-.227.388-.167.033-.331-.088-.373-.268-.039-.181.065-.355.229-.39h0Z"/>
    <path class="cls-1" d="M37.485,34.685c.167-.034.333.085.374.267.036.182-.063.357-.229.389-.169.033-.333-.087-.372-.268-.038-.181.064-.357.227-.389h0Z"/>
    <path class="cls-1" d="M39.237,28.598c.114.473,1.034,1.038.845,1.39-.154.298-.244.48-.643.314-.588-.428-.538-1.057-.202-1.704h0Z"/>
    <path class="cls-1" d="M40.215,29.004s-.178-.419.309-.75c.492-.332.532-.151.532-.151-.418.304-.734.74-.841.901h0Z"/>
    <path class="cls-1" d="M40.495,30.374c.349.2.317.14.37.391,0,0,.589-.062.899-.428.255-.341.142-.647.287-1.026.148-.377.231-.584.231-.584,0,0-.532.179-1.078.648-.544.47-.708.998-.708.998h0Z"/>
    <path class="cls-1" d="M40.288,29.228c.287-.511.565-.895,1.634-1.693-.085.819.01.97-.448,1.31-.59.431-1.136,1.06-1.136,1.06.095-.299.071-.516-.05-.676h0Z"/>
    <path class="cls-1" d="M39.508,30.544c.155-.067.342.015.42.183.078.167.015.359-.137.428-.156.068-.342-.013-.422-.18-.077-.168-.014-.361.139-.431h0Z"/>
    <path class="cls-1" d="M40.344,31.028c.156-.069.344.011.423.18.075.169.016.361-.139.43-.158.068-.344-.012-.421-.181-.076-.168-.015-.363.137-.429h0Z"/>
    <path class="cls-1" d="M40.804,24.697c.24.423,1.28.713,1.196,1.103-.066.328-.103.529-.531.479-.683-.249-.808-.867-.664-1.582h0Z"/>
    <path class="cls-1" d="M41.856,24.818s-.287-.354.09-.806c.382-.455.47-.291.47-.291-.317.406-.501.914-.56,1.098h0Z"/>
    <path class="cls-1" d="M42.502,26.058c.39.096.344.047.464.274,0,0,.549-.221.746-.659.151-.398-.042-.661-.007-1.066.039-.403.061-.625.061-.625,0,0-.462.319-.857.921-.393.602-.406,1.155-.406,1.155h0Z"/>
    <path class="cls-1" d="M41.987,25.013c.135-.57.296-1.016,1.104-2.078.144.811.277.929-.07,1.382-.448.577-.8,1.332-.8,1.332.009-.314-.074-.515-.234-.636h0Z"/>
    <path class="cls-1" d="M41.601,26.494c.13-.107.332-.08.454.06.121.139.114.341-.014.45-.131.109-.333.081-.456-.057-.12-.14-.112-.343.015-.452h0Z"/>
    <path class="cls-1" d="M42.537,26.729c.131-.11.333-.084.457.056.118.142.115.343-.016.452-.133.109-.334.083-.454-.058-.119-.141-.115-.344.013-.45h0Z"/>
    <path class="cls-1" d="M25.665,2.147s0,.006.001.009c0-.003,0-.006-.001-.009h0ZM38.35,20.042s0,0,0,.001c0,0,0,0,0-.001h0ZM6.701,24.683s.001.001.002.002c0,0-.001-.001-.002-.002h0ZM23.508,35.545c.16,0,.31.02.447.066.276.092.483.283.602.551.175.397.336.524.428.524.352-.026.905-1.184,1.199-2.25.186-.669.433-1.281,1.411-1.422.058-.008.144-.192.256-.547.044-.139.081-.259.131-.353.095-.181.139-.386.185-.604.101-.476.227-1.068,1.022-1.281.632-.169,1.004-.591,1.399-1.037.389-.44.791-.895,1.45-1.111,1.063-.348,1.799-1.26,2.512-2.142.239-.295.464-.575.702-.835.041-.045.091-.097.147-.154.46-.473.851-.944.606-1.196,0,0,0,0,0,0-.098-.1-.096-.26.004-.358.05-.049.113-.073.18-.072.122-.1.371-.409.497-.565.172-.213.251-.309.319-.359.143-.105.149-.209.13-.481-.019-.263-.045-.623.306-.895.137-.106.797-.826.912-1.02.052-.889.196-1.138.573-1.784l.122-.21c.098-.169.227-.3.352-.428.113-.114.219-.222.289-.346.227-.396.603-.439.905-.474.258-.029.421-.054.533-.197.473-.605.423-1.255.366-2.009l-.01-.138c-.002-.028-.014-.077-.026-.135-.069-.329-.109-.575-.007-.746,0,0,0-.001,0-.001.01-.016.021-.031.033-.044.017-.021.055-.069.104-.13.193-.243.321-.402.412-.505-.014-.85-1.099-1.296-1.975-1.657-.178-.073-.346-.142-.491-.209-.256-.118-.554-.172-.87-.229-.563-.103-1.145-.209-1.574-.69-.114-.128-.817-.454-1.218-.602-.026-.01-.098-.035-.194-.067-.9-.309-.912-.323-.971-.392-.054-.062-.112-.143-.174-.231-.113-.161-.269-.381-.389-.414-.091-.024-.262-.006-.412.011-.211.023-.411.046-.572-.017-.17-.066-.368-.082-.559-.096-.299-.023-.609-.046-.787-.291-.169-.232-.119-.542-.067-.755.05-.206.257-.347.477-.497.095-.064.261-.178.317-.248-.017-.015-.046-.037-.097-.065-.09-.05-.4-.005-.605.024-.416.06-.985.143-1.06-.339-.012-.075-.033-.165-.056-.261-.066-.283-.141-.604-.082-.859.005-.024.013-.049.024-.073-.319-.047-.792-.09-1.199-.127-1.892-.173-2.806-.299-3.01-.712-.065-.13-.055-.275.028-.407.129-.206.477-.478.92-.814.098-.074.214-.163.276-.214.006-.033.012-.07.018-.11.223-1.319.164-1.73.101-1.857-.369.159-1.452,1.207-1.629,1.497-.007.122-.076.278-.315.43-.31.196-1.203.51-1.516.293-.142-.099-.231-.265-.326-.441-.103-.192-.221-.409-.353-.413-.386-.013-.625.112-.929.268-.152.078-.309.158-.496.227-.26.096-.568.122-.866.147-.301.026-.613.052-.804.151-.556.284-2.457-1.083-2.672-1.367-.175-.231-.619-.341-1.047-.447-.428-.106-.869-.215-1.196-.459-.026-.004-.052-.011-.08-.022-.007-.003-.014-.006-.02-.009-.585.048-1.213.368-1.625.668-.261.19-.661.146-1.085.099-.244-.027-.548-.061-.668-.011-.443.188-.666.625-.902,1.087-.306.6-.654,1.28-1.543,1.454-.139.027-.309.106-.49.189-.344.158-.699.322-1.045.238-.63-.154-1.073-1.037-1.228-1.537-.047-.011-.104-.019-.147-.018.014.048.052.138.151.284.02.029.033.061.039.093.067.146.291.592.324.653.029.051.039.111.028.17-.009.049-.033.094-.067.13.003.145.185.547.975,1.614.08.109.144.196.181.25.057.085.058.195.003.28-.052.08-.143.124-.237.114-.226.125-.526,1.078-.889,2.833-.049.238-.088.426-.116.531q-.014.054.038.112c.052.058.148.164.135.325-.014.178-.153.314-.301.433-.475.385-.885,1.682-1.185,2.629-.142.45-.265.838-.385,1.121.018.104.398.322.581.427.412.237.925.532.685.961-.064.115-.204.202-.542.405-.226.136-.804.483-.902.662.03.019.095.051.226.083.124.03.206.148.191.275-.024.204.062.327.216.526.191.247.453.586.275,1.178-.025.084-.02.128-.013.14.026.044.176.079.257.098.158.037.376.087.42.306.025.122-.024.211-.095.278.122.053.179.161.204.263.042.165.031.295-.033.399-.015.025-.033.047-.051.065.01.013.022.028.035.043.01.013.029.026.052.043.056.041.16.116.182.258.017.113-.029.21-.067.269-.015.079-.044.266-.071.433-.084.527-.132.83-.175,1.009.213.335-.003.713-.139.951-.056.097-.148.26-.143.314.001,0,.007.006.018.014.356.245.239.757.169,1.064-.005.022-.01.042-.014.061.206.311.042.714-.093,1.043-.214.524-.199.619-.031.697.127.059.467.06.741.061.552.002,1.03.003,1.165.338.317.304,3.178.522,3.753.419.227-.23.506-.221.713-.214.273.009.41.013.548-.38.037-.104.148-.42.433-.462.301-.043.513.248.682.483.036.05.07.097.101.134.224.269.793.314,1.343.358.8.064,1.797.142,1.754,1.117-.009.208.074.273.225.391.141.111.317.249.372.514.06.287.004.485-.045.659-.028.1-.053.187-.058.295-.018.359.06.681.142,1.022.058.238.117.485.145.751.008.044.079.189.132.295.193.393.433.882.236,1.248-.185.343-.081.543.075.846.06.115.121.234.17.369.011.031.032.12.06.247.198.884.336,1.232.42,1.365.075-.07.172-.064.222-.062,1.053.062,1.25.007,1.268,0,.665-.371,1.549-.771,2.255-.771h0ZM24.974,37.193c-.342,0-.638-.277-.88-.826-.062-.14-.157-.227-.299-.275-.435-.146-1.278.1-2.309.674-.081.044-.23.128-1.447.061-.137.121-.272.12-.35.104-.384-.077-.592-.694-.841-1.808-.021-.094-.036-.162-.045-.191-.036-.1-.087-.199-.141-.303-.171-.33-.383-.74-.072-1.319.073-.137-.141-.574-.245-.785-.098-.199-.168-.342-.181-.467-.024-.232-.077-.451-.133-.683-.087-.361-.178-.734-.156-1.167.008-.165.045-.293.077-.407.041-.147.071-.253.037-.418-.017-.081-.076-.131-.189-.219-.175-.137-.44-.345-.419-.813.018-.416-.305-.511-1.288-.589-.655-.052-1.331-.105-1.692-.539-.037-.045-.078-.101-.122-.161-.045-.062-.128-.176-.19-.24-.011.022-.024.051-.037.09-.262.743-.732.728-1.042.718-.207-.007-.285-.001-.356.086-.262.322-2.962.011-3.373-.061-.721-.126-1.068-.276-1.177-.515-.111-.052-.483-.053-.71-.054-.372-.001-.724-.003-.952-.108-.652-.302-.384-.957-.224-1.348.092-.226.207-.507.124-.589-.116-.114-.083-.256-.042-.435.099-.436.059-.519.037-.534-.429-.294-.168-.751-.029-.996.184-.322.191-.399.12-.466-.09-.084-.104-.22-.04-.32.04-.154.126-.699.174-1.002.051-.324.072-.456.09-.523-.025-.021-.052-.047-.078-.079-.171-.21-.288-.372-.227-.548.005-.014.01-.027.017-.04-.1-.006-.21-.043-.293-.157-.064-.089-.087-.194-.064-.294.02-.087.068-.155.128-.21-.131-.049-.263-.128-.345-.271-.086-.148-.098-.33-.034-.54.103-.342-.014-.493-.191-.722-.133-.172-.293-.379-.321-.677-.175-.065-.388-.19-.424-.431-.063-.416.438-.753,1.154-1.183.111-.066.241-.145.319-.198-.092-.086-.313-.213-.454-.294-.446-.256-1.001-.575-.795-1.063.11-.261.236-.657.368-1.076.355-1.12.757-2.389,1.349-2.869.032-.026.057-.048.075-.065-.081-.095-.19-.264-.118-.541.026-.1.063-.28.11-.506.346-1.672.631-2.716,1.02-3.087-.719-.973-1.122-1.614-1.055-2.008.005-.026.01-.05.019-.074-.091-.157-.224-.408-.28-.605-.106-.157-.348-.543-.162-.835.111-.174.338-.248.622-.202.378.061.419.221.432.274.116.463.52,1.191.888,1.282.174.042.46-.09.713-.206.2-.092.406-.187.605-.226.647-.126.898-.618,1.189-1.187.267-.523.543-1.063,1.156-1.324.241-.102.571-.065.921-.027.25.028.628.07.73-.005.663-.483,1.437-.772,2.071-.772h.004s.001,0,.002,0c0,0,0,0,.002,0,.063.002.123.027.169.071.236.228.672.336,1.094.441.514.127,1.045.259,1.329.632.198.261,1.716,1.233,2.053,1.214.278-.137.633-.167.977-.196.264-.022.538-.046.734-.118.158-.058.302-.132.44-.203.325-.166.66-.338,1.174-.323.425.012.633.397.785.679.045.083.11.203.153.251.209.022.924-.195,1.055-.353.071-.446,1.414-1.574,1.68-1.754.222-.15.478-.285.686-.158.431.264.382,1.12.164,2.415-.012.072-.023.134-.03.182-.02.129-.086.18-.458.461-.219.166-.605.459-.752.622.341.199,1.766.329,2.555.401,1.53.14,1.892.185,1.924.516.012.122-.016.223-.084.3-.069.079-.155.105-.226.115.004.151.053.358.09.519.022.092.041.178.055.254.102.017.343-.018.494-.04.336-.049.683-.099.922.034.238.132.363.293.372.481.014.309-.286.514-.552.695-.093.063-.249.169-.277.217-.057.241-.013.311-.008.318.04.055.257.072.415.084.217.016.463.035.704.129.049.017.22-.002.332-.014.206-.023.419-.046.602.004.295.081.502.374.669.61.04.057.078.112.115.158.138.058.598.215.781.278.101.035.177.061.205.071.012.005,1.149.436,1.42.74.313.351.786.438,1.287.529.333.061.676.123.99.268.141.064.301.13.473.201,1.001.412,2.373.976,2.286,2.249h0c-.006.079-.046.146-.105.189-.075.083-.309.377-.414.508-.03.038-.06.076-.09.109-.006.086.039.299.058.393.018.087.032.16.035.2l.01.137c.06.787.122,1.6-.472,2.36-.247.317-.594.356-.874.388-.279.032-.428.056-.523.222-.103.181-.244.324-.368.45-.108.109-.209.213-.274.325l-.123.212c-.366.628-.464.797-.507,1.597-.016.308-1.058,1.316-1.105,1.353-.126.097-.13.197-.111.458.02.273.047.646-.336.926-.027.025-.136.16-.225.269-.227.281-.393.479-.531.602.22.591-.443,1.272-.787,1.625-.052.053-.099.101-.137.143-.227.248-.448.521-.681.811-.723.895-1.542,1.911-2.748,2.305-.528.173-.868.558-1.228.965-.427.483-.869.983-1.648,1.191-.473.126-.55.395-.657.897-.049.23-.105.492-.232.734-.028.054-.063.163-.096.269-.118.373-.264.838-.666.896-.63.091-.809.386-.995,1.056-.118.426-.75,2.554-1.651,2.62-.016,0-.031.001-.047.001h0Z"/>
    <path class="cls-1" d="M21.955,26.89l.109-.27s-.066.013-.193.045c-.126.033-.213.117-.213.117l.031.124c.044-.025.094-.04.148-.04.042,0,.082.009.117.024h0Z"/>
    <path class="cls-1" d="M22.675,26.129c-.237-.005-.374.078-.571.182-.192.109-.301.229-.526.297-.395.079-.348-.22-.632-.242-.226-.024-.333.098-.326.261.011.091.091.221.306.227.26.033.3-.018.552-.122.198-.082.395-.187.489-.211.382-.055.464.089.664.109.227.027.333-.097.326-.259-.011-.09-.085-.236-.281-.242h0Z"/>
    <path class="cls-1" d="M21.409,26.506l.165-.048-.137-.144c-.047.041-.063.14-.028.192h0Z"/>
    <path class="cls-1" d="M21.417,26.038l.319.352.201-.136-.521-.516s-.038.048-.034.156c.004.109.034.145.034.145h0Z"/>
    <path class="cls-1" d="M21.437,25.537l.627.653.165-.088-.805-.877s-.041.056-.037.145c.005.088.05.167.05.167h0Z"/>
    <path class="cls-1" d="M21.427,24.982l.76.796s.054-.052.054-.125c0-.071-.025-.152-.025-.152l-.783-.816s-.033.036-.037.135c-.004.1.032.161.032.161h0Z"/>
    <path class="cls-1" d="M21.437,24.445l.763.812s.045-.024.045-.116-.016-.141-.016-.141l-.792-.843s-.03.04-.033.143c-.004.104.033.145.033.145h0Z"/>
    <path class="cls-1" d="M21.563,23.924c-.094.012-.136.033-.136.033,0,0,.76.764.76.768,0,.004.065-.012.07-.084.005-.071-.021-.148-.021-.148l-.505-.556s-.073-.024-.168-.012h0Z"/>
    <path class="cls-1" d="M22.249,23.932s-.119-.012-.218-.012h-.098l.299.304s.032-.087.032-.172-.016-.121-.016-.121h0Z"/>
    <path class="cls-1" d="M21.822,23.216c-.788.028-1.248.184-1.457.356-.143.14-.193.276-.14.38,0,0,.062.192.238.088.259-.136.673-.249,1.362-.244.69.004.981.096,1.232.2.167.084.266.108.332.031.089-.112.053-.243-.021-.359-.246-.257-.768-.445-1.547-.452h0Z"/>
    <path class="cls-1" d="M21.788,26.975c-.159,0-.287.135-.287.301s.128.301.287.301c.157,0,.286-.135.286-.301s-.129-.301-.286-.301h0Z"/>
    <path class="cls-1" d="M29.817,21.266v-7.396c.041.003.083.008.122.008l3.222,7.387h-3.344ZM29.629,21.266h-3.363l3.242-7.433c.04.007.081.016.121.022v7.411h0ZM22.237,22.803c-.151-.003-.3-.009-.449-.02V7.237l.646,1.251-.197,14.315h0ZM17.467,21.266h-3.363v-7.411c.039-.005.08-.015.12-.022l3.243,7.433h0ZM13.915,21.266h-3.344l3.223-7.387c.039,0,.081-.006.121-.009v7.396h0ZM33.294,21.266l-3.238-7.395c.794-.045,1.232-.552,1.452-1.117.221-.014.396-.195.396-.419,0-.233-.19-.422-.422-.422s-.422.189-.422.422c0,.135.065.254.163.331-.113.481-.549.797-1.268.797-.782,0-3.712-1.914-7.135-2.161l.048-2.807-1.026-1.987h-.004l-.978,1.956.047,2.836c-3.42.248-6.347,2.163-7.129,2.163-.719,0-1.155-.315-1.268-.797.099-.077.164-.196.164-.331,0-.233-.189-.422-.422-.422s-.422.189-.422.422c0,.224.175.406.395.419.219.565.658,1.072,1.452,1.117l-3.239,7.395h-.087c.588,1.448,2.008,2.471,3.668,2.471s3.08-1.022,3.667-2.471h-.087l-3.264-7.454c1.465-.308,3.633-1.625,6.583-1.815l.179,10.867c-.832-.011-1.689-.079-2.408-.238-.486-.129-.651.233-.349.393.584.201,1.937.327,2.183.327,0,0,.469-.238,1.298-.25.828-.011,1.291.236,1.291.236.692,0,1.453-.11,2.119-.295.318-.111.277-.444-.13-.395-.623.083-1.539.223-2.477.238l.185-10.882c2.952.188,5.122,1.507,6.588,1.815l-3.264,7.453h-.087c.588,1.448,2.008,2.471,3.668,2.471s3.08-1.022,3.668-2.471h-.088Z"/>
  </g>
</svg>