<?xml version="1.0" encoding="UTF-8"?>
<svg id="Camada_2" data-name="Camada 2" xmlns="http://www.w3.org/2000/svg" viewBox="0 0 161.933 44.335">
  <defs>
    <style>
      .cls-1, .cls-2 {
        fill: #c49a52;
      }

      .cls-3 {
        fill: #1F3F66;
      }

      .cls-4 {
        fill: #1F3F66;
      }

      .cls-4, .cls-2 {
        fill-rule: evenodd;
      }
    </style>
  </defs>
  <g id="Camada_1-2" data-name="Camada 1">
    <path class="cls-3" d="M55.92,7.092v2.509h-1.642V2.317h2.572c1.837,0,2.754.773,2.754,2.322,0,.732-.264,1.323-.791,1.776-.527.451-1.229.678-2.11.678h-.782ZM55.92,3.576v2.272h.645c.874,0,1.311-.383,1.311-1.148,0-.749-.437-1.124-1.311-1.124h-.645ZM65.009,9.601h-4.339V2.317h1.642v5.953h2.697v1.332h0ZM72.624,9.601h-1.788l-.518-1.621h-2.591l-.513,1.621h-1.779l2.653-7.285h1.946l2.591,7.285h0ZM69.942,6.721l-.782-2.449c-.057-.184-.099-.402-.123-.655h-.04c-.017.213-.059.425-.126.635l-.793,2.469h1.864ZM80.088,9.601h-1.656l-3.003-4.578c-.175-.267-.299-.468-.366-.603h-.019c.026.257.04.65.04,1.177v4.004h-1.55V2.317h1.769l2.891,4.434c.132.201.253.399.366.595h.021c-.028-.168-.042-.503-.042-1V2.317h1.55v7.285h0ZM84.832,9.728c-1.044,0-1.894-.34-2.551-1.018-.657-.68-.985-1.564-.985-2.655,0-1.151.333-2.083,1.001-2.794.668-.711,1.55-1.068,2.652-1.068,1.04,0,1.881.342,2.523,1.021.642.681.962,1.58.962,2.693,0,1.145-.333,2.069-.999,2.769-.664.701-1.533,1.051-2.603,1.051h0ZM84.903,3.607c-.576,0-1.034.215-1.372.649-.338.432-.508,1.002-.508,1.713,0,.721.17,1.292.508,1.713.338.42.782.63,1.33.63.567,0,1.014-.205,1.347-.612.331-.409.498-.975.498-1.699,0-.756-.161-1.344-.482-1.763-.323-.42-.763-.63-1.321-.63h0ZM96.863,9.601h-4.37V2.317h4.202v1.335h-2.56v1.621h2.383v1.33h-2.383v1.666h2.728v1.332h0ZM97.695,9.322v-1.626c.295.248.615.433.961.557.345.123.694.185,1.045.185.208,0,.389-.019.541-.055.154-.038.283-.088.387-.156.104-.066.18-.144.231-.232.052-.09.076-.187.076-.293,0-.142-.04-.269-.121-.38-.082-.113-.193-.217-.333-.31-.14-.096-.307-.187-.501-.274-.192-.088-.401-.179-.624-.27-.569-.236-.994-.526-1.273-.869-.279-.342-.418-.754-.418-1.238,0-.38.075-.706.227-.978.153-.274.361-.498.622-.675.264-.175.567-.305.912-.388.345-.083.711-.125,1.098-.125.38,0,.716.024,1.009.069.291.045.562.116.81.212v1.519c-.123-.085-.255-.16-.399-.224-.144-.064-.293-.118-.446-.161-.151-.041-.303-.073-.454-.094-.151-.019-.293-.029-.428-.029-.187,0-.355.017-.508.052-.153.036-.281.087-.387.151-.104.064-.186.14-.245.23-.057.09-.085.191-.085.302,0,.123.031.232.095.328.064.097.156.189.276.276.118.085.262.17.432.253.168.083.361.168.574.257.291.121.551.251.784.389.232.137.432.293.596.465.166.173.293.371.382.593.088.22.132.479.132.773,0,.408-.076.747-.231,1.025-.154.276-.362.499-.628.669-.264.172-.571.295-.921.369-.352.075-.721.111-1.111.111-.399,0-.778-.033-1.139-.101-.361-.068-.674-.17-.938-.305h0ZM108.979,3.652h-2.079v5.95h-1.646V3.652h-2.067v-1.335h5.792v1.335h0ZM116.071,9.601h-1.885l-1.132-1.875c-.085-.142-.167-.269-.245-.382-.078-.111-.156-.206-.236-.286-.08-.08-.163-.141-.25-.184-.087-.042-.18-.063-.281-.063h-.442v2.788h-1.642V2.317h2.601c1.769,0,2.653.661,2.653,1.98,0,.255-.04.489-.118.704-.078.215-.187.409-.329.583-.142.172-.314.321-.515.446-.203.127-.427.224-.675.295v.021c.109.035.213.088.315.165.102.076.2.165.295.267.096.102.186.211.272.328.087.116.165.231.236.343l1.377,2.154h0ZM111.601,3.546v2.027h.711c.352,0,.634-.102.848-.305.217-.206.326-.463.326-.767,0-.638-.382-.956-1.144-.956h-.741ZM123.159,9.601h-1.788l-.518-1.621h-2.591l-.513,1.621h-1.779l2.653-7.285h1.946l2.591,7.285h0ZM120.476,6.721l-.782-2.449c-.057-.184-.099-.402-.123-.655h-.04c-.017.213-.059.425-.126.635l-.793,2.469h1.864ZM128.458,3.652h-2.079v5.95h-1.646V3.652h-2.067v-1.335h5.792v1.335h0ZM133.807,9.601h-4.37V2.317h4.202v1.335h-2.56v1.621h2.383v1.33h-2.383v1.666h2.728v1.332h0ZM133.35,0l-1.59,1.64h-1.158l1.321-1.64h1.427ZM140.955,9.114c-.711.409-1.595.614-2.653.614-1.17,0-2.095-.324-2.771-.973-.675-.649-1.013-1.542-1.013-2.679,0-1.144.369-2.077,1.108-2.799.737-.723,1.72-1.084,2.946-1.084.772,0,1.453.107,2.041.321v1.54c-.562-.326-1.249-.487-2.062-.487-.681,0-1.234.22-1.663.662-.43.442-.643,1.032-.643,1.77,0,.747.192,1.327.576,1.738.385.409.903.614,1.557.614.393,0,.706-.055.935-.166v-1.424h-1.457v-1.311h3.099v3.664h0ZM144.014,9.601h-1.642V2.317h1.642v7.285h0ZM150.892,9.343c-.531.257-1.226.385-2.083.385-1.117,0-1.996-.328-2.636-.985-.641-.657-.961-1.533-.961-2.627,0-1.165.359-2.11,1.079-2.835.72-.725,1.654-1.087,2.802-1.087.711,0,1.311.09,1.798.27v1.58c-.487-.291-1.042-.437-1.666-.437-.683,0-1.236.215-1.656.645-.42.43-.63,1.013-.63,1.748,0,.704.198,1.266.595,1.684.395.418.929.628,1.6.628.64,0,1.226-.156,1.757-.468v1.5h0ZM155.114,9.728c-1.044,0-1.894-.34-2.551-1.018-.657-.68-.985-1.564-.985-2.655,0-1.151.333-2.083,1.001-2.794.668-.711,1.55-1.068,2.652-1.068,1.04,0,1.881.342,2.523,1.021.642.681.962,1.58.962,2.693,0,1.145-.333,2.069-.999,2.769-.664.701-1.533,1.051-2.603,1.051h0ZM155.185,3.607c-.576,0-1.034.215-1.372.649-.338.432-.508,1.002-.508,1.713,0,.721.17,1.292.508,1.713.338.42.782.63,1.33.63.567,0,1.014-.205,1.347-.612.331-.409.498-.975.498-1.699,0-.756-.161-1.344-.482-1.763-.323-.42-.763-.63-1.321-.63h0Z"/>
    <path class="cls-1" d="M61.99,14.177h-2.912v8.334h-2.305v-8.334h-2.895v-1.87h8.112v1.87h0ZM66.656,18.462c0,1.367-.316,2.412-.95,3.138-.632.726-1.55,1.088-2.75,1.088-.537,0-1.032-.092-1.486-.277v-2.157c.393.299.833.449,1.324.449,1.047,0,1.572-.78,1.572-2.334v-6.062h2.29v6.155h0ZM79.26,22.511h-2.065v-6.106c0-.658.029-1.387.088-2.184h-.058c-.034.151-.07.304-.114.454-.041.153-.085.297-.126.433-.044.133-.085.255-.126.362-.039.107-.073.194-.102.26l-1.936,3.721h-1.608l-1.873-3.736c-.019-.041-.044-.109-.078-.202-.034-.092-.068-.204-.107-.335-.037-.131-.078-.277-.117-.437-.041-.163-.075-.335-.105-.52h-.063c.034.444.056.855.071,1.231.014.374.022.69.022.945v6.113h-2.072v-10.204h2.82l1.8,3.544c.051.114.104.233.155.362.053.129.104.258.153.384.051.129.095.253.136.374.041.121.07.233.09.338h.034c.029-.105.061-.221.092-.352.034-.129.071-.262.107-.393.039-.134.078-.262.122-.389.044-.126.087-.238.136-.338l1.848-3.529h2.876v10.204h0ZM81.123,22.12v-2.278c.413.347.862.607,1.346.78.483.172.972.26,1.465.26.291,0,.544-.027.758-.078.216-.053.396-.124.541-.219.146-.092.253-.202.323-.325.073-.126.107-.263.107-.41,0-.199-.056-.376-.17-.532-.114-.158-.27-.304-.466-.435-.197-.134-.43-.262-.702-.384-.27-.124-.561-.25-.874-.379-.797-.33-1.392-.736-1.783-1.217-.391-.478-.585-1.056-.585-1.734,0-.532.104-.989.318-1.37.214-.384.505-.697.872-.945.369-.245.794-.427,1.278-.544.483-.117.996-.175,1.538-.175.532,0,1.003.034,1.414.097.408.063.787.163,1.134.297v2.128c-.173-.119-.357-.223-.559-.313-.202-.09-.41-.165-.624-.226-.211-.058-.425-.102-.636-.131-.211-.027-.41-.041-.6-.041-.262,0-.498.024-.711.073-.214.051-.393.122-.542.211-.146.09-.26.197-.342.323-.08.126-.119.267-.119.423,0,.173.044.326.134.459.09.136.219.265.386.386.165.119.367.238.605.355.236.117.505.236.804.36.408.17.772.352,1.098.544.326.192.605.41.836.651.233.243.41.52.534.831.124.308.185.67.185,1.083,0,.571-.107,1.047-.323,1.435-.216.386-.508.7-.879.938-.369.24-.799.413-1.29.517-.493.105-1.011.156-1.557.156-.558,0-1.09-.046-1.596-.141-.505-.095-.945-.238-1.314-.428h0Z"/>
    <path class="cls-3" d="M98.081,14.981c0-.313-.048-.585-.146-.819-.097-.231-.231-.425-.398-.578-.17-.155-.367-.27-.595-.345-.228-.078-.474-.114-.741-.114-.226,0-.449.029-.668.092-.219.061-.43.146-.636.255-.207.109-.406.24-.598.391-.194.153-.372.321-.539.505v-1.251c.328-.318.694-.561,1.1-.731.406-.168.901-.253,1.484-.253.418,0,.804.061,1.159.182.357.122.666.299.926.53.262.233.466.52.617.862.148.342.223.734.223,1.173,0,.403-.046.77-.138,1.098-.092.325-.233.634-.42.923-.187.291-.423.568-.709.833-.284.267-.617.537-1.003.811-.479.342-.872.634-1.183.877-.311.241-.559.466-.741.678-.182.211-.311.423-.384.634-.075.211-.112.454-.112.729h5.081v1.047h-6.298v-.505c0-.437.049-.821.143-1.154.095-.331.25-.646.469-.945s.505-.598.857-.896c.355-.299.787-.636,1.3-1.011.369-.267.68-.52.928-.763.25-.243.449-.483.602-.726.151-.24.26-.486.323-.736.065-.25.097-.512.097-.794h0ZM107.7,17.366c0,.852-.075,1.61-.231,2.269-.153.66-.376,1.217-.668,1.668-.291.454-.651.797-1.076,1.032-.425.236-.906.352-1.448.352-.513,0-.969-.112-1.37-.338-.401-.226-.738-.554-1.013-.986-.277-.43-.486-.962-.627-1.589-.143-.629-.214-1.35-.214-2.162,0-.891.075-1.678.224-2.361.151-.685.369-1.256.658-1.72.289-.461.649-.811,1.078-1.047.43-.233.921-.352,1.477-.352,2.14,0,3.209,1.744,3.209,5.232h0ZM106.505,17.48c0-2.905-.69-4.355-2.069-4.355-1.457,0-2.186,1.477-2.186,4.433,0,2.757.714,4.134,2.142,4.134,1.409,0,2.113-1.404,2.113-4.212h0ZM113.791,14.981c0-.313-.048-.585-.146-.819-.097-.231-.231-.425-.398-.578-.17-.155-.367-.27-.595-.345-.228-.078-.474-.114-.741-.114-.226,0-.449.029-.668.092-.219.061-.43.146-.636.255-.207.109-.406.24-.598.391-.194.153-.372.321-.539.505v-1.251c.328-.318.694-.561,1.1-.731.406-.168.901-.253,1.484-.253.418,0,.804.061,1.159.182.357.122.666.299.925.53.262.233.466.52.617.862.148.342.223.734.223,1.173,0,.403-.046.77-.138,1.098-.092.325-.233.634-.42.923-.187.291-.423.568-.709.833-.284.267-.617.537-1.003.811-.478.342-.872.634-1.183.877-.311.241-.559.466-.741.678-.182.211-.311.423-.384.634-.075.211-.112.454-.112.729h5.081v1.047h-6.298v-.505c0-.437.049-.821.143-1.154.095-.331.25-.646.469-.945.219-.299.505-.598.857-.896.355-.299.787-.636,1.3-1.011.369-.267.68-.52.928-.763.25-.243.449-.483.602-.726.151-.24.26-.486.323-.736.065-.25.097-.512.097-.794h0ZM123.34,12.982c-.156.27-.345.607-.566,1.011-.221.403-.454.857-.7,1.36-.248.503-.5,1.042-.755,1.623-.258.578-.495,1.176-.719,1.793-.223.617-.418,1.241-.588,1.875-.168.634-.289,1.256-.365,1.868h-1.253c.085-.607.216-1.227.393-1.861.18-.634.381-1.256.605-1.865.226-.61.464-1.195.716-1.761.25-.564.495-1.083.734-1.557.236-.476.454-.894.651-1.258.197-.362.355-.646.474-.85h-5.118v-1.052h6.49v.675h0ZM131.294,18.911h-7.287v-.918h7.287v.918h0ZM136.788,14.981c0-.313-.048-.585-.146-.819-.097-.231-.231-.425-.398-.578-.17-.155-.367-.27-.595-.345-.228-.078-.474-.114-.741-.114-.226,0-.449.029-.668.092-.219.061-.43.146-.636.255-.207.109-.406.24-.598.391-.194.153-.372.321-.539.505v-1.251c.328-.318.694-.561,1.1-.731.406-.168.901-.253,1.484-.253.418,0,.804.061,1.159.182.357.122.666.299.926.53.262.233.466.52.617.862.148.342.223.734.223,1.173,0,.403-.046.77-.138,1.098-.092.325-.233.634-.42.923-.187.291-.423.568-.709.833-.284.267-.617.537-1.003.811-.479.342-.872.634-1.183.877-.311.241-.559.466-.741.678-.182.211-.311.423-.384.634-.075.211-.112.454-.112.729h5.081v1.047h-6.298v-.505c0-.437.049-.821.143-1.154.095-.331.25-.646.469-.945s.505-.598.857-.896c.355-.299.787-.636,1.3-1.011.369-.267.68-.52.928-.763.25-.243.449-.483.602-.726.151-.24.26-.486.323-.736.065-.25.097-.512.097-.794h0ZM146.407,17.366c0,.852-.075,1.61-.231,2.269-.153.66-.376,1.217-.668,1.668-.291.454-.651.797-1.076,1.032-.425.236-.906.352-1.448.352-.512,0-.969-.112-1.37-.338-.401-.226-.738-.554-1.013-.986-.277-.43-.486-.962-.627-1.589-.143-.629-.214-1.35-.214-2.162,0-.891.075-1.678.224-2.361.151-.685.369-1.256.658-1.72.289-.461.649-.811,1.078-1.047.43-.233.921-.352,1.477-.352,2.14,0,3.209,1.744,3.209,5.232h0ZM145.212,17.48c0-2.905-.69-4.355-2.069-4.355-1.457,0-2.186,1.477-2.186,4.433,0,2.757.714,4.134,2.142,4.134,1.409,0,2.113-1.404,2.113-4.212h0ZM153.786,19.62c0,.461-.088.879-.26,1.258-.173.376-.418.7-.734.967-.316.267-.692.476-1.134.622-.442.148-.928.221-1.46.221-.972,0-1.744-.185-2.32-.554v-1.253c.69.542,1.477.811,2.363.811.357,0,.678-.044.964-.136.287-.09.534-.219.741-.391.207-.17.365-.376.476-.619.112-.24.168-.515.168-.819,0-1.331-.95-1.999-2.847-1.999h-.848v-.988h.804c1.681,0,2.519-.627,2.519-1.878,0-1.159-.639-1.736-1.921-1.736-.719,0-1.397.24-2.026.726v-1.132c.649-.389,1.421-.585,2.32-.585.425,0,.814.061,1.159.18.347.119.644.284.889.498.248.214.437.469.573.768.136.299.204.629.204.988,0,1.343-.68,2.208-2.035,2.592v.029c.345.037.666.121.959.253.294.129.549.299.763.508.214.209.381.454.5.736.122.282.182.595.182.935h0ZM160.354,14.981c0-.313-.048-.585-.146-.819-.097-.231-.231-.425-.398-.578-.17-.155-.367-.27-.595-.345-.228-.078-.474-.114-.741-.114-.226,0-.449.029-.668.092-.219.061-.43.146-.636.255-.207.109-.406.24-.598.391-.194.153-.372.321-.539.505v-1.251c.328-.318.694-.561,1.1-.731.406-.168.901-.253,1.484-.253.418,0,.804.061,1.159.182.357.122.666.299.926.53.262.233.466.52.617.862.148.342.223.734.223,1.173,0,.403-.046.77-.138,1.098-.092.325-.233.634-.42.923-.187.291-.423.568-.709.833-.284.267-.617.537-1.003.811-.478.342-.872.634-1.183.877-.311.241-.559.466-.741.678-.182.211-.311.423-.384.634-.075.211-.112.454-.112.729h5.081v1.047h-6.298v-.505c0-.437.049-.821.143-1.154.095-.331.25-.646.469-.945.219-.299.505-.598.857-.896.355-.299.787-.636,1.3-1.011.369-.267.68-.52.928-.763.25-.243.449-.483.602-.726.151-.24.26-.486.323-.736.065-.25.097-.512.097-.794h0Z"/>
    <path class="cls-1" d="M58.084,33.359c-.395.209-.888.314-1.478.314-.762,0-1.371-.245-1.828-.735-.458-.49-.688-1.134-.688-1.93,0-.855.259-1.546.773-2.074.515-.529,1.168-.792,1.959-.792.507,0,.927.074,1.261.22v.669c-.384-.214-.806-.321-1.269-.321-.614,0-1.112.205-1.494.615-.382.41-.573.959-.573,1.646,0,.652.178,1.172.535,1.558.358.387.825.581,1.406.581.536,0,1.003-.12,1.395-.358v.607h0ZM61.229,33.672c-.759,0-1.367-.25-1.823-.75-.456-.499-.685-1.15-.685-1.951,0-.861.233-1.548.698-2.06.465-.512,1.099-.769,1.9-.769.739,0,1.334.249,1.785.746.452.498.677,1.149.677,1.952,0,.873-.232,1.563-.694,2.071-.462.507-1.081.761-1.858.761h0ZM61.274,28.71c-.562,0-1.018.202-1.369.607-.35.406-.526.939-.526,1.597s.171,1.19.513,1.592c.341.401.789.602,1.337.602.587,0,1.05-.191,1.388-.574.339-.384.507-.92.507-1.609,0-.707-.163-1.252-.492-1.638-.329-.386-.782-.578-1.359-.578h0ZM69.148,33.583h-.769l-2.754-4.266c-.07-.107-.127-.219-.172-.335h-.022c.019.115.029.359.029.735v3.866h-.627v-5.351h.814l2.679,4.198c.112.173.185.293.217.358h.015c-.026-.154-.038-.416-.038-.787v-3.769h.628v5.351h0ZM70.3,33.367v-.739c.085.075.187.141.304.201.118.06.243.111.373.152.131.041.262.073.394.096.132.022.255.033.365.033.386,0,.674-.071.865-.215.19-.143.285-.349.285-.617,0-.145-.032-.27-.096-.377-.064-.107-.152-.205-.263-.293-.112-.089-.244-.173-.397-.255-.154-.08-.318-.166-.495-.255-.186-.094-.36-.191-.522-.288-.162-.097-.302-.204-.422-.321-.12-.117-.213-.249-.281-.397-.069-.148-.103-.321-.103-.52,0-.245.053-.456.16-.637.107-.181.248-.329.422-.446.175-.117.373-.204.596-.261.222-.057.45-.086.68-.086.527,0,.912.063,1.154.191v.706c-.316-.219-.722-.329-1.217-.329-.137,0-.274.014-.411.042-.136.029-.259.077-.366.14-.107.065-.194.149-.261.251-.067.102-.101.225-.101.373,0,.136.026.255.077.354.051.099.126.19.225.273.1.082.222.162.364.238.143.078.308.162.494.254.192.096.373.195.545.299.172.104.322.22.451.346.13.127.232.267.308.422.077.154.113.331.113.53,0,.264-.051.488-.154.67-.103.183-.243.332-.418.446-.176.115-.378.197-.606.248-.229.051-.47.077-.725.077-.084,0-.188-.007-.314-.02-.123-.014-.251-.033-.381-.06-.129-.025-.251-.058-.367-.097-.116-.038-.209-.082-.279-.129h0ZM77.776,28.799h-1.545v4.784h-.627v-4.784h-1.541v-.567h3.713v.567h0ZM82.453,33.583h-.746l-.897-1.5c-.082-.139-.16-.257-.238-.357-.078-.098-.156-.178-.237-.239-.082-.062-.168-.108-.261-.136-.093-.029-.199-.043-.316-.043h-.514v2.276h-.627v-5.351h1.597c.233,0,.45.029.647.088.198.059.37.147.515.266.147.12.26.269.341.446.083.178.124.386.124.625,0,.186-.028.358-.084.513-.056.155-.135.294-.238.415-.103.122-.228.227-.373.312-.147.085-.31.153-.492.2v.014c.09.041.168.085.234.136.065.052.129.112.187.182.06.069.12.148.178.237.059.088.124.19.195.307l1.005,1.609h0ZM79.243,28.799v1.941h.851c.157,0,.302-.024.435-.071.134-.047.248-.115.345-.204.097-.088.173-.196.228-.325.055-.127.081-.271.081-.431,0-.287-.092-.509-.278-.67-.185-.16-.454-.241-.804-.241h-.858ZM87.102,31.419c0,1.501-.677,2.253-2.034,2.253-1.298,0-1.947-.722-1.947-2.168v-3.272h.627v3.231c0,1.097.463,1.646,1.388,1.646.893,0,1.34-.53,1.34-1.589v-3.288h.626v3.187h0ZM92.08,33.359c-.418.212-.906.316-1.462.314v.299c.214,0,.385.05.511.149.128.099.191.238.191.418,0,.438-.343.657-1.027.657-.094,0-.176-.003-.243-.008v-.336c.105.015.192.023.262.023.353,0,.53-.112.53-.336,0-.194-.162-.292-.485-.292-.026,0-.075.005-.149.015v-.611c-.647-.083-1.163-.363-1.545-.842-.384-.479-.576-1.079-.576-1.801,0-.855.258-1.546.773-2.074.515-.529,1.168-.792,1.959-.792.507,0,.928.074,1.261.22v.669c-.384-.214-.806-.321-1.269-.321-.614,0-1.112.205-1.494.615-.382.41-.573.959-.573,1.646,0,.652.178,1.172.535,1.558.358.387.825.581,1.406.581.536,0,1.003-.12,1.395-.358v.607h0ZM97.312,33.583h-.694l-.567-1.5h-2.27l-.534,1.5h-.697l2.052-5.351h.65l2.06,5.351h0ZM95.845,31.52l-.839-2.28c-.027-.075-.055-.195-.082-.358h-.015c-.024.152-.054.27-.086.358l-.833,2.28h1.854ZM96.113,26.858c0,.262-.058.475-.178.641-.12.166-.281.248-.485.248-.177,0-.378-.065-.605-.195-.191-.107-.339-.16-.443-.16-.219,0-.329.141-.329.422h-.35c0-.265.059-.479.178-.639.12-.16.287-.241.501-.241.162,0,.346.065.555.194.185.11.344.164.478.164.209,0,.314-.144.314-.433h.365ZM100.256,33.672c-.759,0-1.367-.25-1.823-.75-.456-.499-.685-1.15-.685-1.951,0-.861.233-1.548.698-2.06.465-.512,1.099-.769,1.9-.769.739,0,1.334.249,1.785.746.452.498.677,1.149.677,1.952,0,.873-.232,1.563-.694,2.071-.462.507-1.081.761-1.858.761h0ZM100.301,28.71c-.562,0-1.018.202-1.369.607-.35.406-.526.939-.526,1.597s.171,1.19.513,1.592c.341.401.789.602,1.337.602.587,0,1.05-.191,1.388-.574.339-.384.507-.92.507-1.609,0-.707-.163-1.252-.492-1.638-.329-.386-.782-.578-1.359-.578h0ZM109.596,33.359c-.395.209-.888.314-1.478.314-.762,0-1.371-.245-1.828-.735-.458-.49-.688-1.134-.688-1.93,0-.855.259-1.546.773-2.074.515-.529,1.168-.792,1.959-.792.507,0,.927.074,1.261.22v.669c-.384-.214-.806-.321-1.269-.321-.614,0-1.112.205-1.494.615-.382.41-.573.959-.573,1.646,0,.652.178,1.172.535,1.558.358.387.825.581,1.406.581.536,0,1.003-.12,1.395-.358v.607h0ZM112.742,33.672c-.759,0-1.367-.25-1.823-.75-.456-.499-.685-1.15-.685-1.951,0-.861.233-1.548.698-2.06.465-.512,1.099-.769,1.9-.769.739,0,1.334.249,1.785.746.452.498.677,1.149.677,1.952,0,.873-.232,1.563-.694,2.071-.462.507-1.081.761-1.858.761h0ZM112.787,28.71c-.562,0-1.018.202-1.369.607-.35.406-.526.939-.526,1.597s.171,1.19.513,1.592c.341.401.789.602,1.337.602.587,0,1.05-.191,1.388-.574.339-.384.507-.92.507-1.609,0-.707-.163-1.252-.492-1.638-.329-.386-.782-.578-1.359-.578h0ZM119.122,33.583h-2.775v-5.351h.627v4.784h2.149v.567h0ZM122.779,33.583h-2.835v-5.351h2.717v.567h-2.09v1.781h1.934v.563h-1.934v1.874h2.208v.567h0ZM126.989,28.799h-1.545v4.784h-.627v-4.784h-1.541v-.567h3.713v.567h0ZM128.457,33.583h-.627v-5.351h.627v5.351h0ZM133.842,28.232l-1.982,5.351h-.69l-1.94-5.351h.698l1.481,4.243c.047.136.083.294.108.474h.014c.02-.149.061-.31.124-.481l1.512-4.235h.675ZM138.317,33.583h-.694l-.567-1.5h-2.27l-.534,1.5h-.697l2.052-5.351h.65l2.06,5.351h0ZM136.849,31.52l-.839-2.28c-.027-.075-.055-.195-.082-.358h-.015c-.024.152-.054.27-.086.358l-.833,2.28h1.854Z"/>
    <path class="cls-3" d="M55.069,40.7v2.023h-.627v-5.351h1.47c.572,0,1.015.139,1.331.418.315.279.471.671.471,1.18s-.175.922-.525,1.246c-.349.324-.821.485-1.415.485h-.706ZM55.069,37.938v2.195h.657c.432,0,.763-.099.99-.297.228-.198.341-.478.341-.838,0-.707-.418-1.06-1.253-1.06h-.735ZM62.274,42.722h-.694l-.567-1.5h-2.27l-.534,1.5h-.697l2.052-5.351h.65l2.06,5.351h0ZM60.807,40.659l-.839-2.28c-.027-.075-.055-.195-.082-.358h-.015c-.024.152-.054.27-.086.358l-.833,2.28h1.854ZM66.898,42.722h-.746l-.897-1.5c-.082-.139-.16-.257-.238-.357-.078-.098-.156-.178-.237-.239-.082-.062-.168-.108-.261-.136-.093-.029-.199-.043-.316-.043h-.514v2.276h-.627v-5.351h1.597c.233,0,.45.029.647.088.198.059.37.147.515.266.147.12.26.269.341.446.083.178.124.386.124.625,0,.186-.028.358-.084.513-.056.155-.135.294-.238.415-.103.122-.228.227-.373.312-.147.085-.31.153-.492.2v.014c.09.041.168.085.234.136.065.052.129.112.187.182.06.069.12.148.178.237.059.088.124.19.195.307l1.005,1.609h0ZM63.688,37.938v1.941h.851c.157,0,.302-.024.435-.071.133-.047.248-.115.345-.204.097-.088.173-.196.228-.325.055-.127.081-.271.081-.431,0-.287-.092-.509-.278-.67-.185-.16-.454-.241-.804-.241h-.858ZM71.775,42.722h-.694l-.567-1.5h-2.27l-.534,1.5h-.697l2.052-5.351h.65l2.06,5.351h0ZM70.308,40.659l-.839-2.28c-.027-.075-.055-.195-.082-.358h-.015c-.024.152-.054.27-.086.358l-.833,2.28h1.854ZM78.57,40.558c0,1.502-.677,2.253-2.034,2.253-1.298,0-1.947-.722-1.947-2.168v-3.272h.627v3.232c0,1.097.463,1.646,1.388,1.646.893,0,1.34-.53,1.34-1.589v-3.288h.626v3.187h0ZM84.765,42.722h-.623v-3.59c0-.143.004-.303.013-.484.009-.18.022-.373.039-.58h-.015c-.014.06-.037.126-.066.199-.03.074-.062.145-.096.213-.034.069-.065.13-.093.185-.029.055-.05.097-.062.124l-1.373,2.537h-.306l-1.373-2.53c-.013-.029-.035-.073-.064-.129-.029-.056-.061-.118-.093-.187-.033-.068-.064-.138-.092-.21-.029-.073-.051-.14-.065-.201h-.015c.01.107.018.251.023.432.004.182.007.395.007.638v3.583h-.604v-5.351h.783l1.388,2.545c.06.112.111.217.153.313.042.097.074.182.093.253h.023c.024-.074.058-.162.098-.261.042-.099.094-.206.159-.321l1.385-2.53h.776v5.351h0ZM90.311,42.722h-.694l-.567-1.5h-2.27l-.534,1.5h-.697l2.052-5.351h.65l2.06,5.351h0ZM88.843,40.659l-.839-2.28c-.027-.075-.055-.195-.082-.358h-.015c-.024.152-.054.27-.086.358l-.833,2.28h1.854ZM94.561,40.804c0,.634-.134,1.127-.403,1.48-.269.352-.629.528-1.079.528-.209,0-.381-.029-.514-.089v-.619c.134.097.308.145.522.145.564,0,.847-.479.847-1.437v-3.44h.626v3.433h0ZM99.834,40.558c0,1.502-.677,2.253-2.034,2.253-1.298,0-1.947-.722-1.947-2.168v-3.272h.627v3.232c0,1.097.463,1.646,1.388,1.646.893,0,1.34-.53,1.34-1.589v-3.288h.626v3.187h0ZM100.92,42.506v-.739c.085.075.187.141.304.201.118.06.243.111.373.152.131.041.262.073.394.096.132.022.255.033.365.033.386,0,.674-.071.865-.215.19-.143.285-.349.285-.617,0-.145-.032-.27-.096-.377-.064-.107-.152-.205-.262-.293-.112-.089-.244-.173-.397-.255-.154-.08-.318-.166-.495-.255-.186-.094-.36-.191-.522-.288-.162-.097-.302-.204-.422-.321-.12-.117-.213-.249-.281-.397-.069-.148-.103-.321-.103-.52,0-.245.053-.456.16-.637.107-.181.248-.329.422-.446.175-.117.373-.204.596-.261.222-.057.45-.086.68-.086.527,0,.912.063,1.154.191v.706c-.316-.219-.722-.329-1.217-.329-.137,0-.274.014-.411.042-.136.029-.259.077-.366.14-.107.065-.194.149-.261.251-.067.102-.101.225-.101.373,0,.136.025.255.077.354.051.099.126.19.225.273.099.082.222.162.364.238.143.078.308.162.494.254.192.096.373.195.545.299.172.104.322.22.451.346.13.127.232.267.308.422.077.154.113.331.113.53,0,.264-.051.488-.154.67-.103.183-.243.332-.418.446-.176.115-.378.197-.606.248-.229.051-.47.077-.725.077-.084,0-.188-.007-.314-.02-.123-.014-.251-.033-.381-.06-.129-.025-.251-.058-.367-.097-.116-.038-.209-.082-.279-.129h0ZM108.395,37.938h-1.545v4.784h-.627v-4.784h-1.541v-.567h3.713v.567h0ZM109.863,42.722h-.627v-5.351h.627v5.351h0ZM114.912,42.498c-.418.211-.906.316-1.462.314v.299c.214,0,.385.05.511.149.128.1.191.238.191.418,0,.438-.343.657-1.027.657-.094,0-.176-.003-.243-.008v-.336c.105.015.192.023.262.023.353,0,.53-.112.53-.336,0-.194-.162-.292-.485-.292-.026,0-.075.005-.149.015v-.611c-.647-.083-1.163-.363-1.545-.842-.384-.479-.576-1.079-.576-1.801,0-.855.259-1.546.773-2.074.515-.529,1.168-.792,1.959-.792.507,0,.927.074,1.261.22v.669c-.384-.214-.806-.321-1.269-.321-.614,0-1.112.205-1.494.615-.382.41-.573.959-.573,1.646,0,.652.178,1.172.535,1.558.358.387.825.581,1.406.581.536,0,1.003-.12,1.395-.358v.607h0ZM120.144,42.722h-.694l-.567-1.5h-2.27l-.534,1.5h-.697l2.052-5.351h.65l2.06,5.351h0ZM118.677,40.659l-.839-2.28c-.027-.075-.055-.195-.082-.358h-.015c-.024.152-.054.27-.086.358l-.833,2.28h1.854ZM127.883,42.722h-.623v-3.59c0-.143.004-.303.013-.484.009-.18.022-.373.039-.58h-.015c-.014.06-.037.126-.066.199-.03.074-.062.145-.096.213-.034.069-.065.13-.093.185-.029.055-.05.097-.062.124l-1.373,2.537h-.306l-1.373-2.53c-.013-.029-.035-.073-.064-.129-.029-.056-.061-.118-.093-.187-.033-.068-.064-.138-.092-.21-.029-.073-.051-.14-.065-.201h-.015c.01.107.018.251.023.432.004.182.007.395.007.638v3.583h-.604v-5.351h.783l1.388,2.545c.06.112.111.217.153.313.042.097.074.182.093.253h.023c.024-.074.058-.162.098-.261.042-.099.094-.206.159-.321l1.385-2.53h.776v5.351h0ZM132.122,42.722h-2.835v-5.351h2.717v.567h-2.09v1.781h1.934v.563h-1.934v1.874h2.208v.567h0ZM135.928,42.722h-2.775v-5.351h.627v4.784h2.149v.567h0ZM140.772,42.722h-.626v-2.441h-2.769v2.441h-.627v-5.351h.627v2.347h2.769v-2.347h.626v5.351h0ZM144.332,42.812c-.759,0-1.367-.25-1.823-.75-.456-.499-.685-1.15-.685-1.951,0-.861.233-1.548.698-2.06.465-.512,1.099-.769,1.9-.769.739,0,1.334.249,1.785.746.452.498.677,1.149.677,1.952,0,.873-.232,1.563-.694,2.071-.462.507-1.081.761-1.858.761h0ZM144.377,37.849c-.562,0-1.018.202-1.369.607-.35.406-.526.939-.526,1.597s.171,1.19.513,1.592c.341.401.789.602,1.337.602.587,0,1.05-.191,1.388-.574.339-.384.507-.92.507-1.609,0-.707-.163-1.252-.492-1.638-.329-.386-.782-.578-1.359-.578h0ZM151.774,42.722h-.746l-.897-1.5c-.082-.139-.16-.257-.238-.357-.078-.098-.156-.178-.237-.239-.082-.062-.168-.108-.261-.136-.093-.029-.199-.043-.316-.043h-.514v2.276h-.627v-5.351h1.597c.233,0,.45.029.647.088.198.059.37.147.515.266.147.12.26.269.341.446.083.178.124.386.124.625,0,.186-.028.358-.084.513-.056.155-.135.294-.238.415-.103.122-.228.227-.373.312-.147.085-.31.153-.492.2v.014c.09.041.168.085.234.136.065.052.129.112.187.182.06.069.12.148.178.237.059.088.124.19.195.307l1.005,1.609h0ZM148.564,37.938v1.941h.851c.157,0,.302-.024.435-.071.134-.047.248-.115.345-.204.097-.088.173-.196.228-.325.055-.127.081-.271.081-.431,0-.287-.092-.509-.278-.67-.185-.16-.454-.241-.804-.241h-.858Z"/>
    <path class="cls-4" d="M31.804,31.796c-.38.285-1.432.884-1.868,1.35-.19.204-.217.251-.394.408-.388.345-.825,1.138-1.065,1.324-.03.213-.582,1.261-.728,1.576-.245.531-.477,1.166-.614,1.79-.153.697-.193,1.452-.067,2.166.159.904.431,1.103.759,1.649,1.064.069,3.988-.666,5.048-.967,3.409-.967,6.326-2.471,9.032-4.56,3.327-2.569,5.832-6.637,5.446-11.038-.23-2.619-1.249-4.52-2.698-6.377-.27-.346-1.175-1.257-1.56-1.451.165.703.587,1.018.721,2.579.215,2.502-.984,4.872-2.711,6.531-.166.16-.301.251-.451.415-.209.228-.646.567-.91.758-.324.235-.648.461-.997.67-1.63.976-2.76,1.482-4.602,2.127-.902.316-1.576.74-2.341,1.05h0Z"/>
    <path class="cls-4" d="M18.873,34.821c-.158-.12-.107-.069-.234-.249-.745-1.062-1.978-2.292-3.105-2.773-1.01-.728-3.427-1.43-4.709-2.005-1.595-.714-3.103-1.664-4.14-2.596-.148-.133-.249-.271-.395-.407-1.77-1.644-2.978-3.993-2.752-6.521.105-1.17.402-1.706.745-2.604-.833.358-2.271,2.292-2.778,3.166-2.673,4.61-1.577,9.905,1.638,13.428,1.997,2.188,4.079,3.808,6.915,5.13,2.758,1.286,5.963,2.364,9.385,2.681.411-.244.728-.976.854-1.578.539-2.575-1.266-4.938-1.425-5.672h0Z"/>
    <path class="cls-2" d="M14.274,12.834c.116.085,1.13.244,1.312.281,2.945.603,5.138,2.2,6.373,5.107,1.835,4.322,1.236,10.369,1.737,11.347.629-3.823-.048-7.276,1.709-11.33.306-.705.787-1.574,1.191-2.083.137-.172.229-.286.352-.451.192-.259,1.034-.926,1.328-1.14,1.324-.967,2.976-1.312,4.857-1.691-.427-.806-2.741-2.153-3.82-2.562-4.256-1.613-10.686-1.329-14.185,1.724-.295.258-.609.492-.853.798h0Z"/>
    <path class="cls-4" d="M28.229,15.591c3.045-.085,5.132.768,7.311,2.575.462.383.486.49.731.69.219.179.479.512.668.753,1.148,1.472,1.931,3.373,1.805,5.331-.062.957-.35,1.482-.626,2.227.321-.121.937-.671,1.205-.879.379-.295.744-.719,1.053-1.047.102-.108.149-.128.246-.247.092-.113.119-.165.242-.314.168-.203.293-.381.446-.605.259-.378.54-.884.745-1.358,1.085-2.506.385-4.938-1.073-6.413-2.21-2.235-6.492-2.979-9.808-2.123-.845.218-1.889.616-2.618,1.092l-.22.171c-.135.148.027-.096-.107.145h0Z"/>
    <path class="cls-4" d="M9.213,27.152c-.248-.789-.518-.833-.626-2.241-.065-.834.088-1.719.319-2.484.808-2.675,2.997-4.684,5.453-5.91,1.505-.752,2.934-.951,4.793-.934l-.107-.117c-.01-.009-.025-.024-.035-.034-.046-.042-.092-.075-.14-.111-.103-.076-.223-.154-.335-.218-4.044-2.304-10.864-1.409-13.022,2.325-.261.452-.457.941-.592,1.501-.313,1.303-.092,2.578.34,3.7.323.839,1.165,2.104,1.644,2.558.443.419,1.668,1.749,2.308,1.964h0Z"/>
    <path class="cls-2" d="M23.24.042c-.661.101-.961.196-1.475.477-1.317.717-2.131,2.259-1.97,3.886.198,1.999,2.104,3.696,4.388,3.404,2.014-.258,3.745-2.07,3.412-4.421-.271-1.911-2.112-3.687-4.355-3.345h0Z"/>
    <path class="cls-4" d="M40.105,6.535c-4.546.957-3.216,7.586,1.253,6.788,1.701-.304,3.114-1.931,2.753-4.026-.287-1.665-1.983-3.188-4.006-2.762h0Z"/>
    <path class="cls-4" d="M6.211,6.499c-1.779.247-3.212,1.832-2.962,3.895.214,1.761,1.833,3.234,3.869,2.957,1.76-.24,3.231-1.821,2.96-3.884-.233-1.768-1.854-3.248-3.867-2.968h0Z"/>
    <path class="cls-2" d="M15.534,31.798c1.127.481,2.361,1.711,3.105,2.773.126.181.075.13.234.249-1.416-4.043-7.19-8.836-7.18-15.731-.313.164-.993.976-1.252,1.356-1.293,1.899-1.666,4.206-.521,6.235,1.18,2.091,2.933,2.026,4.52,3.509.308.287.993,1.019,1.094,1.609h0Z"/>
    <path class="cls-2" d="M28.477,34.879c.24-.185.677-.979,1.065-1.324.177-.157.204-.205.394-.408.436-.466,1.488-1.065,1.868-1.35.242-.675.389-.751.74-1.23.78-1.066,2.825-1.803,3.569-2.419,2.398-1.983,2.496-5.147.846-7.632-.288-.434-.955-1.272-1.278-1.446-.175,3.535-.971,5.683-2.848,8.638-1.486,2.341-3.087,4.414-4.357,7.171h0Z"/>
  </g>
</svg>
