<?xml version="1.0" encoding="UTF-8"?>
<svg id="Camada_2" data-name="Camada 2" xmlns="http://www.w3.org/2000/svg" viewBox="0 0 149.708 135.351">
  <defs>
    <style>
      .cls-1 {
        fill: #fff;
      }

      .cls-2 {
        fill: #bb9250;
      }
    </style>
  </defs>
  <g id="Camada_1-2" data-name="Camada 1">
    <g>
      <path class="cls-1" d="M7.748,34.067c-1.035,0-2.007-.196-2.917-.588-.91-.392-1.702-.925-2.376-1.6-.675-.674-1.208-1.466-1.6-2.376-.392-.91-.588-1.882-.588-2.917V7.528c0-1.035.196-2.008.588-2.917.392-.91.925-1.71,1.6-2.4.674-.69,1.466-1.231,2.376-1.623.91-.392,1.882-.588,2.917-.588s2.008.196,2.917.588c.91.392,1.702.933,2.376,1.623.674.69,1.208,1.49,1.6,2.4.392.91.588,1.882.588,2.917v19.057c0,1.035-.196,2.007-.588,2.917-.392.91-.925,1.702-1.6,2.376-.675.674-1.467,1.208-2.376,1.6-.91.392-1.882.588-2.917.588h0ZM5.678,27.103c0,.565.204,1.051.612,1.459.408.408.894.611,1.459.611s1.051-.204,1.459-.611c.408-.408.612-.894.612-1.459V6.917c0-.565-.204-1.043-.612-1.435s-.894-.588-1.459-.588-1.051.196-1.459.588c-.408.392-.612.871-.612,1.435v20.186h0ZM30.992,15.528v18.257h-5.411V.376h13.034v4.893h-7.623v5.364h6.352v4.894h-6.352ZM48.026,34.067c-1.035,0-2.008-.196-2.917-.588-.91-.392-1.702-.925-2.376-1.6-.675-.674-1.208-1.466-1.6-2.376-.392-.91-.588-1.882-.588-2.917V.376h5.411v26.726c0,.565.204,1.051.612,1.459.408.408.894.611,1.459.611s1.051-.204,1.459-.611c.408-.408.612-.894.612-1.459V.376h5.411v26.209c0,1.035-.196,2.007-.588,2.917-.392.91-.925,1.702-1.6,2.376-.675.674-1.467,1.208-2.376,1.6-.91.392-1.882.588-2.917.588h0ZM61.624,33.784V5.27h-4.235V.376h13.881v4.893h-4.235v28.515h-5.411ZM80.681,34.067c-1.035,0-2.008-.196-2.917-.588-.91-.392-1.702-.925-2.376-1.6-.675-.674-1.208-1.466-1.6-2.376-.392-.91-.588-1.882-.588-2.917V.376h5.411v26.726c0,.565.204,1.051.612,1.459.408.408.894.611,1.459.611s1.051-.204,1.459-.611c.408-.408.612-.894.612-1.459V.376h5.411v26.209c0,1.035-.196,2.007-.588,2.917-.392.91-.925,1.702-1.6,2.376-.675.674-1.467,1.208-2.376,1.6-.91.392-1.882.588-2.917.588h0ZM104.537,29.126c0,.816.047,1.514.141,2.094.094.581.22,1.059.376,1.435.126.439.298.816.518,1.129l-5.458-.047s-.055-.071-.165-.212c-.11-.141-.22-.392-.329-.753-.11-.361-.22-.839-.329-1.435-.11-.596-.165-1.333-.165-2.212v-7.293c0-.659-.235-1.231-.714-1.717-.478-.486-1.066-.745-1.764-.776h-1.192v14.445h-5.411V.376h7.458c1.035,0,2,.196,2.909.588.902.392,1.702.925,2.392,1.6.69.675,1.223,1.467,1.615,2.376.392.91.588,1.882.588,2.917v3.999c0,1.035-.196,2.008-.588,2.917-.392.91-.933,1.71-1.623,2.4.533.659.957,1.396,1.27,2.212.314.816.471,1.678.471,2.588v7.152h0ZM95.456,14.445h1.615c.698,0,1.294-.243,1.788-.729.494-.478.737-1.066.737-1.749v-4.172c0-.714-.243-1.317-.737-1.796-.494-.486-1.106-.729-1.835-.729h-1.568v9.175h0ZM114.795,34.067c-1.035,0-2.008-.196-2.917-.588-.91-.392-1.702-.925-2.376-1.6-.675-.674-1.208-1.466-1.6-2.376-.392-.91-.588-1.882-.588-2.917V7.528c0-1.035.196-2.008.588-2.917.392-.91.925-1.71,1.6-2.4.674-.69,1.466-1.231,2.376-1.623.91-.392,1.882-.588,2.917-.588s2.008.196,2.917.588c.91.392,1.702.933,2.376,1.623.674.69,1.208,1.49,1.6,2.4.392.91.588,1.882.588,2.917v19.057c0,1.035-.196,2.007-.588,2.917-.392.91-.925,1.702-1.6,2.376-.675.674-1.467,1.208-2.376,1.6-.91.392-1.882.588-2.917.588h0ZM112.724,27.103c0,.565.204,1.051.612,1.459.408.408.894.611,1.459.611s1.051-.204,1.459-.611c.408-.408.612-.894.612-1.459V6.917c0-.565-.204-1.043-.612-1.435-.408-.392-.894-.588-1.459-.588s-1.051.196-1.459.588c-.408.392-.612.871-.612,1.435v20.186h0Z"/>
      <path class="cls-2" d="M15.229,67.129c0,1.035-.196,2.008-.588,2.917-.392.91-.925,1.702-1.6,2.376-.675.674-1.467,1.208-2.376,1.6s-1.882.588-2.917.588H.266v-33.361h7.481c1.035,0,2.008.196,2.917.588.91.392,1.702.926,2.376,1.6.674.675,1.208,1.467,1.6,2.376.392.91.588,1.882.588,2.917v18.398h0ZM7.277,69.717c.69,0,1.286-.243,1.788-.729.502-.478.753-1.082.753-1.804v-18.508c0-.721-.251-1.325-.753-1.804-.502-.486-1.098-.729-1.788-.729h-1.6v23.574h1.6ZM22.664,70.564l-.518,4.094h-5.505l5.129-33.408h6.447l4.988,33.408h-5.505l-.471-4.094h-4.564ZM26.617,65.718l-1.647-14.116-1.694,14.069,3.341.047h0ZM50.567,74.94c-1.035,0-2.008-.196-2.917-.596-.91-.392-1.702-.933-2.376-1.615-.675-.682-1.208-1.474-1.6-2.392-.392-.918-.588-1.89-.588-2.925v-7.623h5.411v8.187c0,.565.204,1.051.612,1.459.408.408.894.611,1.459.611s1.051-.204,1.459-.611c.408-.408.612-.894.612-1.459v-26.727h5.411v26.209c0,1.035-.196,2.008-.588,2.917-.392.91-.925,1.702-1.6,2.376-.675.674-1.467,1.208-2.376,1.6-.91.392-1.882.588-2.917.588h0ZM67.412,74.94c-1.035,0-2.008-.196-2.917-.588-.91-.392-1.702-.926-2.376-1.6-.675-.674-1.208-1.466-1.6-2.376-.392-.91-.588-1.882-.588-2.917v-26.209h5.411v26.727c0,.565.204,1.051.612,1.459.408.408.894.611,1.459.611s1.051-.204,1.459-.611c.408-.408.612-.894.612-1.459v-26.727h5.411v26.209c0,1.035-.196,2.008-.588,2.917-.392.91-.925,1.702-1.6,2.376-.675.674-1.467,1.208-2.376,1.6-.91.392-1.882.588-2.917.588h0ZM84.257,74.94c-1.035,0-2.007-.196-2.917-.596-.91-.392-1.702-.933-2.376-1.615-.675-.682-1.208-1.474-1.6-2.392-.392-.918-.588-1.89-.588-2.925v-4.658h5.411v5.223c0,.565.204,1.051.612,1.459.408.408.894.611,1.459.611s1.051-.204,1.459-.611c.408-.408.612-.894.612-1.459v-2.815c0-1.035-.235-1.921-.706-2.651-.471-.737-1.059-1.404-1.765-2-.706-.596-1.474-1.168-2.306-1.718-.831-.549-1.6-1.153-2.305-1.827-.706-.674-1.294-1.467-1.765-2.376-.471-.91-.706-2-.706-3.286v-2.917c0-1.027.196-2,.588-2.909.392-.91.925-1.71,1.6-2.392.674-.69,1.466-1.231,2.376-1.623.91-.392,1.882-.588,2.917-.588s2.008.196,2.917.588c.91.392,1.702.933,2.376,1.623.674.69,1.208,1.49,1.6,2.4.392.91.588,1.882.588,2.917v4.564h-5.411v-5.176c0-.565-.204-1.043-.612-1.435-.408-.392-.894-.588-1.459-.588s-1.051.196-1.459.588c-.408.392-.612.871-.612,1.435v3.059c0,.878.235,1.639.706,2.282.471.643,1.059,1.247,1.765,1.812.706.565,1.474,1.129,2.306,1.694.831.565,1.6,1.192,2.306,1.882.706.69,1.294,1.474,1.764,2.352.471.878.706,1.929.706,3.153v3.435c0,1.035-.196,2.008-.588,2.917-.392.91-.925,1.702-1.6,2.376-.675.674-1.467,1.208-2.376,1.6-.91.392-1.882.588-2.917.588h0ZM97.855,74.658v-28.515h-4.235v-4.893h13.881v4.893h-4.235v28.515h-5.411ZM114.842,41.25v33.408h-5.411v-33.408h5.411ZM124.535,76.964c1.255,0,2.188.298,2.8.894.612.596.918,1.584.918,2.964v.329c0,1.098-.275,2.047-.823,2.847-.549.8-1.435,1.2-2.659,1.2-.973,0-1.796-.337-2.47-1.012-.674-.674-1.012-1.498-1.012-2.47v-1.271h2.212v1.271c0,.345.126.643.376.894.251.251.549.376.894.376.439,0,.761-.165.965-.494s.306-.761.306-1.294v-.376c0-.69-.118-1.129-.353-1.318s-.62-.282-1.153-.282h-1.506l-.376-1.365.8-2.964c-.941-.094-1.819-.353-2.635-.776-.816-.423-1.521-.965-2.117-1.623-.596-.659-1.067-1.419-1.412-2.282-.345-.863-.518-1.78-.518-2.752v-19.057c0-1.035.196-2.008.588-2.917s.925-1.71,1.6-2.4c.674-.69,1.466-1.231,2.376-1.623.91-.392,1.882-.588,2.917-.588s2.008.196,2.917.588c.91.392,1.702.933,2.376,1.623.674.69,1.208,1.49,1.6,2.4.392.91.588,1.882.588,2.917v5.693h-5.411v-6.305c0-.565-.204-1.043-.612-1.435-.408-.392-.894-.588-1.459-.588s-1.051.196-1.459.588c-.408.392-.612.871-.612,1.435v20.233c0,.565.204,1.051.612,1.459.408.408.894.611,1.459.611s1.051-.204,1.459-.611c.408-.408.612-.894.612-1.459v-6.258h5.411v5.694c0,.91-.149,1.772-.447,2.588-.298.816-.721,1.545-1.27,2.188-.549.643-1.192,1.192-1.929,1.647-.737.455-1.529.761-2.376.918l-1.176,2.164h0ZM139.168,70.564l-.518,4.094h-5.505l5.129-33.408h6.447l4.988,33.408h-5.505l-.471-4.094h-4.564ZM143.121,65.718l-1.647-14.116-1.694,14.069,3.341.047h0Z"/>
      <path class="cls-1" d="M3.448,99.141c-.477,0-.925-.09-1.344-.271-.419-.181-.784-.426-1.095-.737-.311-.311-.556-.676-.737-1.095-.181-.419-.271-.867-.271-1.344v-8.782c0-.477.09-.925.271-1.344.181-.419.427-.788.737-1.106.311-.318.676-.568,1.095-.748.419-.181.867-.271,1.344-.271s.925.09,1.344.271c.419.181.784.43,1.095.748.311.318.556.687.737,1.106.181.419.271.867.271,1.344v2.624h-2.494v-2.906c0-.26-.094-.481-.282-.661-.188-.181-.412-.271-.672-.271s-.484.09-.672.271c-.188.181-.282.401-.282.661v9.303c0,.26.094.484.282.672.188.188.412.282.672.282s.484-.094.672-.282c.188-.188.282-.412.282-.672v-2.884h2.494v2.624c0,.477-.09.925-.271,1.348-.181.423-.427.788-.737,1.102-.311.314-.676.564-1.095.745-.419.184-.867.274-1.344.274h0ZM11.211,99.141c-.477,0-.925-.09-1.344-.271-.419-.181-.784-.426-1.095-.737s-.556-.676-.737-1.095c-.181-.419-.271-.867-.271-1.344v-8.782c0-.477.09-.925.271-1.344.181-.419.427-.788.737-1.106.311-.318.676-.568,1.095-.748.419-.181.867-.271,1.344-.271s.925.09,1.344.271c.419.181.784.43,1.095.748.311.318.556.687.737,1.106.181.419.271.867.271,1.344v8.782c0,.477-.09.925-.271,1.344-.181.419-.427.784-.737,1.095s-.676.557-1.095.737c-.419.181-.867.271-1.344.271h0ZM10.257,95.932c0,.26.094.484.282.672.188.188.412.282.672.282s.484-.094.672-.282c.188-.188.282-.412.282-.672v-9.303c0-.26-.094-.481-.282-.661-.188-.181-.412-.271-.672-.271s-.484.09-.672.271c-.188.181-.282.401-.282.661v9.303h0ZM17.738,89.838l.304,9.173h-2.515v-15.396h3.057l1.995,9.975,1.995-9.975h3.058v15.396h-2.515l.304-9.173-1.691,9.173h-2.299l-1.691-9.173h0ZM32.592,96.756v2.255h-6.093v-15.396h5.985v2.255h-3.491v2.472h2.928v2.255h-2.928v6.159h3.6ZM37.06,100.073c.578,0,1.009.137,1.29.412.282.275.423.73.423,1.366v.152c0,.506-.126.943-.38,1.312-.253.368-.661.553-1.225.553-.448,0-.828-.155-1.138-.466-.311-.311-.466-.691-.466-1.139v-.585h1.019v.585c0,.159.058.297.173.412.116.116.253.173.412.173.202,0,.351-.076.444-.228.094-.152.141-.351.141-.596v-.173c0-.318-.054-.52-.162-.607-.109-.087-.286-.13-.532-.13h-.694l-.173-.629.369-1.366c-.434-.043-.838-.163-1.214-.358-.376-.195-.701-.444-.976-.748-.275-.304-.492-.654-.651-1.052-.159-.397-.238-.82-.238-1.268v-8.782c0-.477.09-.925.271-1.344.181-.419.427-.788.737-1.106.311-.318.676-.568,1.095-.748.419-.181.867-.271,1.344-.271s.925.09,1.344.271c.419.181.784.43,1.095.748.311.318.556.687.737,1.106.181.419.271.867.271,1.344v2.624h-2.494v-2.906c0-.26-.094-.481-.282-.661-.188-.181-.412-.271-.672-.271s-.484.09-.672.271c-.188.181-.282.401-.282.661v9.325c0,.26.094.484.282.672.188.188.412.282.672.282s.484-.094.672-.282c.188-.188.282-.412.282-.672v-2.884h2.494v2.624c0,.419-.069.817-.206,1.193-.137.376-.333.712-.585,1.008-.253.296-.549.549-.889.759-.34.21-.705.351-1.095.423l-.542.998h0ZM43.804,97.124l-.239,1.887h-2.537l2.364-15.396h2.971l2.299,15.396h-2.537l-.217-1.887h-2.103ZM45.625,94.891l-.759-6.506-.781,6.484,1.54.022h0ZM56.663,99.141c-.477,0-.925-.09-1.344-.271-.419-.181-.784-.426-1.095-.737-.311-.311-.556-.676-.737-1.095-.181-.419-.271-.867-.271-1.344v-8.782c0-.477.09-.925.271-1.344.181-.419.427-.788.737-1.106.311-.318.676-.568,1.095-.748.419-.181.867-.271,1.344-.271s.925.09,1.344.271c.419.181.784.43,1.095.748.311.318.556.687.737,1.106.181.419.271.867.271,1.344v2.624h-2.494v-2.906c0-.26-.094-.481-.282-.661-.188-.181-.412-.271-.672-.271s-.484.09-.672.271c-.188.181-.282.401-.282.661v9.303c0,.26.094.484.282.672.188.188.412.282.672.282s.484-.094.672-.282c.188-.188.282-.412.282-.672v-2.884h2.494v2.624c0,.477-.09.925-.271,1.348-.181.423-.427.788-.737,1.102-.311.314-.676.564-1.095.745-.419.184-.867.274-1.344.274h0ZM64.426,99.141c-.477,0-.925-.09-1.344-.271-.419-.181-.784-.426-1.095-.737-.311-.311-.556-.676-.737-1.095-.181-.419-.271-.867-.271-1.344v-8.782c0-.477.09-.925.271-1.344.181-.419.427-.788.737-1.106.311-.318.676-.568,1.095-.748.419-.181.867-.271,1.344-.271s.925.09,1.344.271c.419.181.784.43,1.095.748.311.318.556.687.737,1.106.181.419.271.867.271,1.344v8.782c0,.477-.09.925-.271,1.344-.181.419-.427.784-.737,1.095-.311.311-.676.557-1.095.737-.419.181-.867.271-1.344.271h0ZM63.472,95.932c0,.26.094.484.282.672.188.188.412.282.672.282s.484-.094.672-.282c.188-.188.282-.412.282-.672v-9.303c0-.26-.094-.481-.282-.661-.188-.181-.412-.271-.672-.271s-.484.09-.672.271c-.188.181-.282.401-.282.661v9.303h0ZM70.953,89.838l.304,9.173h-2.515v-15.396h3.057l1.995,9.975,1.995-9.975h3.058v15.396h-2.516l.304-9.173-1.691,9.173h-2.299l-1.691-9.173h0ZM86.176,97.124l-.239,1.887h-2.537l2.364-15.396h2.971l2.299,15.396h-2.537l-.217-1.887h-2.103ZM87.998,94.891l-.759-6.506-.781,6.484,1.54.022h0ZM99.035,99.141c-.477,0-.925-.09-1.344-.274-.419-.181-.784-.43-1.095-.745-.311-.314-.556-.679-.737-1.102-.181-.423-.271-.871-.271-1.348v-2.147h2.494v2.407c0,.26.094.484.282.672.188.188.412.282.672.282s.484-.094.672-.282c.188-.188.282-.412.282-.672v-1.298c0-.477-.108-.885-.325-1.221-.217-.34-.488-.647-.813-.922-.325-.275-.679-.539-1.062-.792-.383-.253-.737-.531-1.063-.842-.325-.311-.596-.676-.813-1.095-.217-.419-.325-.922-.325-1.514v-1.344c0-.473.09-.922.271-1.341.181-.419.427-.788.737-1.102.311-.318.676-.568,1.095-.748.419-.181.867-.271,1.344-.271s.925.09,1.344.271c.419.181.784.43,1.095.748.311.318.556.687.737,1.106.181.419.271.867.271,1.344v2.103h-2.494v-2.385c0-.26-.094-.481-.282-.661-.188-.181-.412-.271-.672-.271s-.484.09-.672.271c-.188.181-.282.401-.282.661v1.41c0,.405.109.755.325,1.052.217.296.488.575.813.835.325.26.679.52,1.062.781.383.26.737.549,1.063.867.325.318.596.679.813,1.084.217.405.325.889.325,1.453v1.583c0,.477-.09.925-.271,1.344-.181.419-.427.784-.737,1.095-.311.311-.676.557-1.095.737-.419.181-.867.271-1.344.271h0ZM106.799,99.141c-.477,0-.925-.09-1.344-.271-.419-.181-.784-.426-1.095-.737-.311-.311-.556-.676-.737-1.095-.181-.419-.271-.867-.271-1.344v-12.078h2.494v12.317c0,.26.094.484.282.672.188.188.412.282.672.282s.484-.094.672-.282c.188-.188.282-.412.282-.672v-12.317h2.494v12.078c0,.477-.09.925-.271,1.344-.181.419-.427.784-.737,1.095-.311.311-.676.557-1.095.737-.419.181-.867.271-1.344.271h0ZM113.673,97.124l-.239,1.887h-2.537l2.364-15.396h2.971l2.299,15.396h-2.537l-.217-1.887h-2.103ZM115.495,94.891l-.759-6.506-.781,6.484,1.54.022h0Z"/>
      <path class="cls-2" d="M25.751,111.718c.847-.064,1.508.185,1.985.746.476.561.64,1.254.492,2.08-.233,1.418-1.111,2.879-2.635,4.382-1.461,1.439-3.186,2.509-5.176,3.207-1.588,4.7-2.487,8.806-2.699,12.32-.021.36-.191.619-.508.778-.317.159-.63.159-.937,0-.307-.159-.45-.418-.429-.778.212-3.662,1.08-7.801,2.604-12.416-.169-.233-.212-.503-.127-.81.085-.307.296-.513.635-.619.275-.805.572-1.63.889-2.477.444-1.185,1.249-3.207,2.413-6.065.296-.699.497-1.185.603-1.461-.275-.127-.46-.344-.556-.651-.095-.307-.037-.609.175-.905.338-.381.736-.593,1.191-.635.455-.043.842.159,1.159.603.212.402.222.9.032,1.492-.127.444-.307.952-.54,1.524.487-.19.963-.296,1.429-.317h0ZM26.417,114.1c.021-.169.021-.264,0-.286-.106-.254-.455-.307-1.048-.159-.677.19-1.418.572-2.223,1.143-.762,1.884-1.397,3.535-1.905,4.954.762-.36,1.466-.783,2.112-1.27.646-.487,1.233-1.058,1.762-1.715.529-.656.91-1.334,1.143-2.032.085-.254.138-.466.159-.635h0ZM34.07,111.146c.127-.339.36-.545.698-.619.339-.074.63,0,.873.222.243.222.323.524.238.905-.339,1.376-.656,2.72-.953,4.033-.275,1.143-.487,2.075-.635,2.794-.127.551-.201.91-.222,1.08-.021,0-.032.042-.032.127.211.169.333.381.365.635.032.254-.058.497-.27.73-.487.487-.963.603-1.429.349-.466-.254-.646-.836-.54-1.746.043-.423.127-.91.254-1.461-1.016.931-2.022,1.386-3.017,1.365-.529,0-.921-.143-1.175-.429-.254-.286-.365-.651-.333-1.095.032-.445.1-.868.206-1.27.106-.402.254-.783.444-1.143.275-.593.63-1.159,1.064-1.699.434-.54.979-1.011,1.635-1.413.656-.402,1.291-.519,1.905-.349.169.042.317.106.444.19.17-.423.328-.825.477-1.207h0ZM32.768,114.385s.005-.01.016-.032c.01-.021.016-.042.016-.064v-.032l-.032-.032c-.021-.106-.063-.18-.127-.222-.063-.042-.148-.037-.254.016-.106.053-.196.106-.27.159-.074.053-.175.122-.302.206-.042.043-.074.074-.095.095-.635.508-1.175,1.238-1.619,2.191-.042.106-.095.259-.159.46-.063.201-.106.323-.127.365.508-.212.773-.317.794-.317.487-.339.91-.72,1.27-1.143.212-.275.508-.825.889-1.651h0ZM43.437,111.782c.381-.043.651.09.81.397.159.307.159.619,0,.937-.159.318-.429.497-.81.54-.952.085-1.783.455-2.493,1.111-.709.656-1.286,1.482-1.731,2.477-.275.635-.497,1.365-.667,2.191-.042.127-.084.36-.127.698-.021.021-.032.042-.032.063-.042.444-.291.746-.746.905-.455.159-.789.016-1-.429-.212-.487-.36-1.011-.445-1.572-.085-.561-.095-1.138-.032-1.73.063-.593.148-1.164.254-1.715.106-.55.264-1.132.476-1.746.212-.614.413-1.159.603-1.635.19-.476.402-.99.635-1.54.212-.318.466-.476.762-.476s.556.153.778.46c.222.307.249.63.079.969-.317.741-.646,1.64-.984,2.699,1.249-1.566,2.805-2.434,4.668-2.604h0ZM65.665,102.7c.254.127.429.317.524.571.095.254.079.508-.048.762-.19.487-.698.815-1.524.984-.317.063-.587,0-.81-.19-.223-.191-.344-.434-.365-.73-2.138-.381-4.604-.519-7.398-.413-1.905.084-3.874.254-5.906.508-1.164,3.599-2.159,7.049-2.985,10.352-.529,2.096-.937,3.821-1.223,5.176-.286,1.355-.534,2.995-.746,4.922-.212,1.926-.243,3.694-.095,5.303.021.381-.117.646-.413.794-.296.148-.609.148-.937,0-.328-.148-.503-.413-.524-.794-.19-2.18-.011-4.975.54-8.383.847-5.292,2.265-10.976,4.255-17.052-2.498.402-5.187.963-8.065,1.683-2.964.741-5.472,1.471-7.526,2.191-.36.127-.656.063-.889-.191-.233-.254-.317-.556-.254-.905.063-.349.275-.588.635-.715.868-.296,1.99-.645,3.366-1.048,4.678-1.355,9.145-2.35,13.4-2.985.571-1.736,1.196-3.482,1.873-5.239.127-.36.37-.572.73-.635.36-.064.661.021.905.254.243.233.302.529.175.889-.275.677-.614,1.598-1.016,2.763-.212.614-.402,1.175-.572,1.683.297-.043.614-.074.953-.095,3.599-.402,6.795-.477,9.59-.223.762.085,1.503.18,2.223.286.106.021.281.048.524.079s.439.058.587.079c.148.021.317.058.508.111.191.053.36.122.508.206h0ZM50.138,115.909c-.106.529-.153,1.191-.143,1.985.01.794.175,1.413.492,1.858.233.296.254.593.064.889-.191.297-.455.45-.794.461-.339.01-.635-.132-.889-.429-.635-.889-.847-2.403-.635-4.541.127-1.185.307-2.286.54-3.302.085-.36.296-.571.635-.635.339-.064.64.021.905.254.265.233.355.529.27.889-.191.847-.339,1.704-.445,2.572h0ZM50.487,109.019c.254.042.445.18.572.413.127.233.159.477.095.73-.021.042-.085.296-.19.762-.063.233-.212.413-.445.54-.233.127-.465.159-.698.096-.254-.064-.444-.212-.571-.445-.127-.233-.159-.466-.095-.698.021-.064.037-.127.048-.19.01-.064.026-.127.048-.19.021-.064.037-.127.048-.191.01-.064.026-.127.048-.191.064-.233.206-.413.429-.54s.46-.159.714-.095h0ZM57.504,115.052c.275-.275.582-.349.921-.222.339.127.55.344.635.651.084.307.01.609-.223.905-.635.614-1.206,1.132-1.715,1.556-.508.423-1.143.841-1.905,1.254-.762.413-1.492.651-2.191.715-.783.064-1.307-.175-1.572-.715-.265-.54-.323-1.212-.175-2.016.19-.974.556-1.873,1.095-2.699.54-.825,1.223-1.376,2.048-1.651.36-.106.698-.122,1.016-.048.317.074.561.222.73.445.169.222.291.487.365.794.074.307.048.64-.079,1-.106.339-.312.55-.619.635-.307.085-.593.042-.857-.127-.265-.169-.397-.402-.397-.698-.127.085-.254.211-.381.381-.635.741-1.016,1.651-1.143,2.731.444-.085.677-.138.698-.159,1.101-.445,2.35-1.355,3.747-2.731h0ZM52.678,118.037s.01-.011.032-.032c0,0-.011.01-.032.032h0ZM59.251,115.909c-.106.529-.153,1.191-.143,1.985.01.794.175,1.413.492,1.858.233.296.254.593.064.889-.191.297-.455.45-.794.461-.339.01-.635-.132-.889-.429-.635-.889-.847-2.403-.635-4.541.127-1.185.307-2.286.54-3.302.085-.36.297-.571.635-.635.339-.064.64.021.905.254.265.233.355.529.27.889-.191.847-.339,1.704-.445,2.572h0ZM59.6,109.019c.254.042.445.18.572.413.127.233.159.477.095.73-.021.042-.085.296-.19.762-.063.233-.212.413-.445.54-.233.127-.465.159-.698.096-.254-.064-.444-.212-.571-.445-.127-.233-.159-.466-.095-.698.021-.064.037-.127.048-.19.01-.064.026-.127.048-.19.021-.064.037-.127.048-.191.01-.064.026-.127.048-.191.063-.233.206-.413.429-.54.222-.127.46-.159.714-.095h0ZM66.776,111.718c.847-.064,1.508.185,1.985.746.476.561.64,1.254.492,2.08-.233,1.418-1.111,2.879-2.635,4.382-1.461,1.439-3.186,2.509-5.176,3.207-1.588,4.7-2.487,8.806-2.699,12.32-.021.36-.191.619-.508.778-.317.159-.63.159-.937,0-.307-.159-.45-.418-.429-.778.212-3.662,1.08-7.801,2.604-12.416-.169-.233-.212-.503-.127-.81.085-.307.296-.513.635-.619.275-.805.572-1.63.889-2.477.444-1.185,1.249-3.207,2.413-6.065.296-.699.497-1.185.604-1.461-.275-.127-.46-.344-.556-.651-.095-.307-.037-.609.175-.905.338-.381.736-.593,1.191-.635.455-.043.842.159,1.159.603.212.402.222.9.032,1.492-.127.444-.307.952-.54,1.524.487-.19.963-.296,1.429-.317h0ZM67.443,114.1c.021-.169.021-.264,0-.286-.106-.254-.455-.307-1.048-.159-.677.19-1.418.572-2.223,1.143-.762,1.884-1.397,3.535-1.905,4.954.762-.36,1.466-.783,2.112-1.27.646-.487,1.233-1.058,1.762-1.715.529-.656.91-1.334,1.143-2.032.085-.254.137-.466.159-.635h0ZM75.096,111.146c.127-.339.36-.545.698-.619.339-.074.63,0,.873.222.243.222.323.524.238.905-.339,1.376-.656,2.72-.953,4.033-.275,1.143-.487,2.075-.635,2.794-.127.551-.201.91-.222,1.08-.021,0-.032.042-.032.127.211.169.333.381.365.635.032.254-.058.497-.27.73-.487.487-.963.603-1.429.349-.466-.254-.646-.836-.54-1.746.043-.423.127-.91.254-1.461-1.016.931-2.022,1.386-3.017,1.365-.529,0-.921-.143-1.175-.429-.254-.286-.365-.651-.333-1.095.032-.445.1-.868.206-1.27.106-.402.254-.783.444-1.143.275-.593.63-1.159,1.064-1.699.434-.54.979-1.011,1.635-1.413.656-.402,1.291-.519,1.905-.349.169.042.317.106.445.19.17-.423.328-.825.477-1.207h0ZM73.794,114.385s.005-.01.016-.032c.01-.021.016-.042.016-.064v-.032l-.032-.032c-.021-.106-.064-.18-.127-.222-.063-.042-.148-.037-.254.016-.106.053-.196.106-.27.159-.074.053-.175.122-.302.206-.042.043-.074.074-.095.095-.635.508-1.175,1.238-1.619,2.191-.042.106-.095.259-.159.46-.064.201-.106.323-.127.365.508-.212.773-.317.794-.317.487-.339.91-.72,1.27-1.143.212-.275.508-.825.889-1.651h0ZM82.59,115.338c.254-.275.556-.349.905-.222.349.127.566.344.651.651.085.307,0,.609-.254.905-.677.656-1.333,1.244-1.969,1.762-.635.519-1.291.926-1.969,1.223.064.296.106.55.127.762.021.043.042.143.064.302.021.159.037.281.048.365.01.085.026.201.048.349.021.148.026.27.016.365-.01.095-.032.201-.064.317-.032.116-.069.228-.111.333-.444.762-1.418.815-2.921.159-.233-.106-.381-.296-.445-.572-.063-.275-.032-.508.095-.698.275-.487.698-.604,1.27-.349h-.032.063c.064.021.127.042.19.064-.021-.233-.074-.519-.159-.858h-.032c-.804.064-1.339-.175-1.604-.714-.265-.54-.312-1.212-.143-2.017.19-.974.55-1.873,1.079-2.699.529-.826,1.207-1.376,2.032-1.651.741-.233,1.323-.106,1.746.381.423.487.518,1.09.286,1.81-.106.339-.307.55-.603.635-.297.085-.577.043-.842-.127-.265-.169-.397-.402-.397-.698-.127.085-.265.212-.413.381-.635.741-1.016,1.651-1.143,2.731.444-.085.677-.138.698-.159,1.122-.466,2.382-1.376,3.779-2.731h0ZM77.763,118.323s.01-.011.032-.032c-.021,0-.032.01-.032.032h0ZM78.366,121.466c-.064.085-.064.201,0,.349v-.349h0ZM88.115,111.019c.169-.444.317-.841.444-1.191.127-.349.36-.561.698-.635s.63.005.873.238c.243.233.323.529.238.889-.339,1.397-.656,2.741-.953,4.033-.275,1.143-.487,2.075-.635,2.794-.127.551-.201.91-.222,1.08,0,.021-.01.064-.032.127.212.19.333.407.365.651.032.243-.058.482-.27.715-.487.487-.963.603-1.429.349-.466-.254-.646-.836-.54-1.746.042-.402.127-.889.254-1.461-1.016.931-2.011,1.397-2.985,1.397-.529-.021-.921-.175-1.175-.461-.254-.286-.37-.645-.349-1.079.021-.434.085-.858.19-1.27.106-.413.254-.789.444-1.127.296-.614.656-1.191,1.08-1.731.423-.54.963-1.005,1.619-1.397.656-.391,1.302-.503,1.937-.333.148.042.297.095.445.159h0ZM87.257,113.052c0-.021.01-.042.032-.063v-.095c-.042-.106-.095-.18-.159-.222-.064-.042-.148-.037-.254.016-.106.053-.196.106-.27.159-.074.053-.175.132-.302.238-.042.021-.074.042-.095.064-.635.508-1.175,1.238-1.619,2.191-.042.106-.095.259-.159.46-.064.201-.095.323-.095.365.487-.19.741-.296.762-.317.487-.339.91-.72,1.27-1.143.233-.275.529-.826.889-1.651h0ZM89.035,104.669c.677-.064,1.196.164,1.556.683.36.518.54,1.127.54,1.826-.021.381-.191.651-.508.81-.317.159-.63.159-.937,0-.307-.159-.45-.429-.429-.81,0-.043-.005-.095-.016-.159-.01-.063-.021-.127-.032-.19-.01-.064-.016-.116-.016-.159,0-.064-.01-.106-.032-.127-.042,0-.159.063-.349.191-.148.106-.503.397-1.064.873-.561.476-1.032.778-1.413.905-.36.064-.709.069-1.048.016-.339-.053-.646-.201-.921-.445-.275-.243-.444-.545-.508-.905-.148-.699.18-1.344.984-1.937.402-.275.757-.249,1.064.079.307.328.386.693.238,1.095.423-.275.646-.423.667-.444.021-.021.064-.053.127-.095.847-.741,1.545-1.143,2.096-1.207h0ZM98.434,111.401c.36-.127.656-.063.889.19.233.254.317.556.254.905-.063.35-.275.588-.635.715-1.185.423-2.265.773-3.239,1.048-.042.021-.095.032-.159.032-.085.699-.476,1.482-1.175,2.35-1.376,1.715-2.53,2.456-3.461,2.223-.487-.106-.831-.323-1.032-.651-.201-.328-.286-.677-.254-1.048.032-.37.143-.794.334-1.27.19-.476.376-.879.556-1.206.18-.328.365-.64.556-.937.551-.804,1.185-1.132,1.905-.984.402.084.921.042,1.556-.127,1.037-.275,2.339-.688,3.906-1.238h0ZM93.1,115.243c.106-.148.222-.317.349-.508-.19,0-.381-.021-.571-.063h-.127c-.063.084-.153.233-.27.444-.116.212-.228.402-.333.571-.106.169-.159.254-.159.254-.021.042-.048.1-.079.175-.032.074-.069.169-.111.286-.043.117-.074.206-.095.27.064-.042.117-.074.159-.095.444-.402.857-.847,1.238-1.334h0Z"/>
    </g>
  </g>
</svg>